<svg xmlns="http://www.w3.org/2000/svg" viewBox="0 -0.5 100 100" shape-rendering="crispEdges">
<metadata>Made with Pixels to Svg https://codepen.io/shshaw/pen/XbxvNj</metadata>
<path stroke="#002836" d="M0 0h100M0 1h100M0 2h95M97 2h3M0 3h53M55 3h39M98 3h2M0 4h17M18 4h28M47 4h47M98 4h2M0 5h6M10 5h35M46 5h6M54 5h41M97 5h3M11 6h2M17 6h2M22 6h31M54 6h5M60 6h39M26 7h72M26 8h25M53 8h45M26 9h29M56 9h41M27 10h27M55 10h19M75 10h22M27 11h24M53 11h5M60 11h14M76 11h12M89 11h7M27 12h4M33 12h22M56 12h4M61 12h3M66 12h8M76 12h2M79 12h17M26 13h5M33 13h9M43 13h17M61 13h6M68 13h4M73 13h3M77 13h7M85 13h10M24 14h14M42 14h12M55 14h2M59 14h7M67 14h1M69 14h2M72 14h2M75 14h1M77 14h5M83 14h12M10 15h3M22 15h14M38 15h3M44 15h11M56 15h1M59 15h1M61 15h17M81 15h1M83 15h3M87 15h1M89 15h5M0 16h5M9 16h7M22 16h14M37 16h1M41 16h1M43 16h11M58 16h1M60 16h1M63 16h4M68 16h3M76 16h1M78 16h1M81 16h1M83 16h3M90 16h2M0 17h35M36 17h3M55 17h2M63 17h3M67 17h5M74 17h1M76 17h2M0 18h36M37 18h1M58 18h2M62 18h7M70 18h1M73 18h2M76 18h1M78 18h1M80 18h2M0 19h5M6 19h29M36 19h1M61 19h7M70 19h1M73 19h6M0 20h28M29 20h2M32 20h2M35 20h1M63 20h3M72 20h1M74 20h3M0 21h24M25 21h5M31 21h2M34 21h1M88 21h1M0 22h24M25 22h4M30 22h2M68 22h1M70 22h1M85 22h5M0 23h7M8 23h17M26 23h6M70 23h1M84 23h6M0 24h21M23 24h3M30 24h1M83 24h4M88 24h2M98 24h2M0 25h14M15 25h13M75 25h1M78 25h1M80 25h1M83 25h7M96 25h4M0 26h7M8 26h4M13 26h6M20 26h3M24 26h1M26 26h3M73 26h1M75 26h2M83 26h2M86 26h6M94 26h6M0 27h13M14 27h8M23 27h2M26 27h2M73 27h1M79 27h1M81 27h3M85 27h15M0 28h23M24 28h3M83 28h2M86 28h14M0 29h22M24 29h2M85 29h1M87 29h1M89 29h11M0 30h6M7 30h5M13 30h10M77 30h1M86 30h14M0 31h1M2 31h3M6 31h6M14 31h3M18 31h6M78 31h1M82 31h1M86 31h14M1 32h2M4 32h9M14 32h1M16 32h8M81 32h2M85 32h15M2 33h1M6 33h7M17 33h2M21 33h3M84 33h1M87 33h13M4 34h1M10 34h2M17 34h1M20 34h3M82 34h18M5 35h1M18 35h2M22 35h1M83 35h17M4 36h1M12 36h1M22 36h1M82 36h1M85 36h1M87 36h3M93 36h7M5 37h1M19 37h3M86 37h3M90 37h1M92 37h1M94 37h6M0 38h3M5 38h1M7 38h1M12 38h1M20 38h1M86 38h4M91 38h1M93 38h7M1 39h1M4 39h1M6 39h1M8 39h1M18 39h2M86 39h14M0 40h1M3 40h4M8 40h1M11 40h2M14 40h1M82 40h1M84 40h1M86 40h1M88 40h12M1 41h6M9 41h4M14 41h4M20 41h1M81 41h1M83 41h1M87 41h13M1 42h1M3 42h4M8 42h4M13 42h3M17 42h3M82 42h1M87 42h13M0 43h18M19 43h1M88 43h12M0 44h5M7 44h1M9 44h11M85 44h15M0 45h6M7 45h1M9 45h11M82 45h1M84 45h16M0 46h6M7 46h1M9 46h11M82 46h18M0 47h7M10 47h10M82 47h5M88 47h12M0 48h8M9 48h1M11 48h9M82 48h3M89 48h11M0 49h14M15 49h5M84 49h2M88 49h12M0 50h10M11 50h1M13 50h1M15 50h4M83 50h3M87 50h2M91 50h9M0 51h12M14 51h4M19 51h1M82 51h4M89 51h1M91 51h9M0 52h13M14 52h4M19 52h1M82 52h5M88 52h4M93 52h7M0 53h17M18 53h1M82 53h2M85 53h1M87 53h2M90 53h10M0 54h3M5 54h7M13 54h4M18 54h1M82 54h2M85 54h4M92 54h8M0 55h2M6 55h14M81 55h4M86 55h4M94 55h6M0 56h2M6 56h8M15 56h6M81 56h3M85 56h3M89 56h11M0 57h3M5 57h13M81 57h4M87 57h3M91 57h9M0 58h15M16 58h1M18 58h3M80 58h20M0 59h16M17 59h1M21 59h1M80 59h4M85 59h1M87 59h2M90 59h10M0 60h15M19 60h1M79 60h5M85 60h15M0 61h18M20 61h1M79 61h21M0 62h17M20 62h3M78 62h7M86 62h6M94 62h6M0 63h15M16 63h2M19 63h1M79 63h3M85 63h9M95 63h5M0 64h14M15 64h1M19 64h5M78 64h5M85 64h3M89 64h4M94 64h6M0 65h12M13 65h3M17 65h2M20 65h1M22 65h1M76 65h1M78 65h1M80 65h3M85 65h1M87 65h4M93 65h7M0 66h16M19 66h1M22 66h3M75 66h4M81 66h4M89 66h11M0 67h18M19 67h2M22 67h4M76 67h3M81 67h1M83 67h2M86 67h1M88 67h1M90 67h2M93 67h7M0 68h26M73 68h7M81 68h6M88 68h12M0 69h27M75 69h1M77 69h1M79 69h21M0 70h28M70 70h2M73 70h4M78 70h22M0 71h29M69 71h3M73 71h3M77 71h23M0 72h27M28 72h1M68 72h5M74 72h26M0 73h26M30 73h3M66 73h34M0 74h21M23 74h1M30 74h1M32 74h3M66 74h22M90 74h10M6 75h15M24 75h1M28 75h1M30 75h4M65 75h23M90 75h10M10 76h15M26 76h1M30 76h4M38 76h1M66 76h2M69 76h1M71 76h29M13 77h21M35 77h3M39 77h3M61 77h2M64 77h1M67 77h2M70 77h30M18 78h10M29 78h3M33 78h12M46 78h8M55 78h1M59 78h8M69 78h31M18 79h11M30 79h1M32 79h3M36 79h6M45 79h1M48 79h10M61 79h1M63 79h1M65 79h1M68 79h32M18 80h12M31 80h1M33 80h2M36 80h1M38 80h2M45 80h1M47 80h9M59 80h2M62 80h2M66 80h34M18 81h12M33 81h2M36 81h3M46 81h7M54 81h2M57 81h1M60 81h1M65 81h1M67 81h33M18 82h11M30 82h1M32 82h4M38 82h1M41 82h11M55 82h4M60 82h1M64 82h36M18 83h12M34 83h3M39 83h8M48 83h12M62 83h38M20 84h5M38 84h62M40 85h13M54 85h7M67 85h33M41 86h11M53 86h2M68 86h32M69 87h31M70 88h30M72 89h28M72 90h28M72 91h28M69 92h9M79 92h21M46 93h54M44 94h56M41 95h59M11 96h2M27 96h3M39 96h11M51 96h45M97 96h3M10 97h6M26 97h74M10 98h8M24 98h76M8 99h13M24 99h76" />
<path stroke="#ffffff" d="M95 2h2M94 3h4M17 4h1M94 4h4M95 5h2M59 6h1M3 7h2M3 8h2M88 11h1M31 12h2M31 13h2M99 16h1M99 17h1M24 21h1M81 29h2M6 30h1M81 30h2M3 54h2M2 55h4M92 55h1M2 56h4M3 57h2M12 65h1M21 74h2M88 74h2M21 75h2M88 75h2M68 78h1M45 87h1M11 90h1M78 92h1M50 96h1M96 96h1M0 97h1M0 98h1" />
<path stroke="#002938" d="M53 3h2M46 4h1M45 5h1M52 5h2M53 6h1M19 53h1M17 54h1M18 57h3M15 58h1M17 58h1M18 59h3M15 60h4M18 61h2M17 62h1M19 62h1M20 63h1M53 85h1M52 86h1" />
<path stroke="#00465e" d="M6 5h4M0 6h11M13 6h4M19 6h3M0 7h3M5 7h18M0 8h3M5 8h18M0 9h24M0 10h24M0 11h24M99 11h1M0 12h22M99 12h1M0 13h1M5 13h3M14 13h7M98 13h2M7 14h1M17 14h3M98 14h2M97 15h3M97 16h2M95 17h4M98 18h2M87 19h1M89 19h1M98 19h2M85 20h1M87 20h7M98 20h2M81 21h7M89 21h11M79 22h1M82 22h3M90 22h5M78 23h6M90 23h4M77 24h6M97 24h1M92 26h2M0 77h4M0 78h8M0 79h11M0 80h16M0 81h16M0 82h16M0 83h16M0 84h16M1 85h15M4 86h14M27 86h8M5 87h32M63 87h2M5 88h34M56 88h11M6 89h2M14 89h46M61 89h6M0 90h2M16 90h42M59 90h1M61 90h6M0 91h2M18 91h47M0 92h3M12 92h1M18 92h38M57 92h1M59 92h6M0 93h46M0 94h44M0 95h41M0 96h11M13 96h14M30 96h9M1 97h9M16 97h10M1 98h9M18 98h6M0 99h8M21 99h3" />
<path stroke="#004a64" d="M99 6h1M23 7h3M98 7h2M23 8h3M98 8h2M24 9h2M97 9h3M24 10h3M97 10h3M24 11h3M96 11h3M22 12h5M96 12h3M1 13h4M8 13h6M21 13h5M95 13h3M0 14h7M8 14h9M20 14h4M95 14h3M0 15h10M13 15h9M94 15h3M5 16h4M16 16h6M89 16h1M92 16h5M87 17h8M84 18h2M87 18h11M84 19h3M90 19h8M80 20h1M82 20h1M94 20h4M77 21h3M77 22h2M95 22h5M77 23h1M94 23h6M90 24h7M90 25h6M0 75h6M0 76h10M4 77h9M8 78h10M11 79h7M16 80h2M16 81h2M16 82h2M16 83h2M33 83h1M16 84h4M25 84h13M0 85h1M16 85h23M61 85h6M0 86h4M18 86h9M36 86h5M55 86h13M0 87h5M37 87h8M46 87h4M51 87h3M55 87h8M65 87h4M0 88h5M39 88h11M51 88h1M54 88h2M67 88h3M0 89h6M8 89h6M67 89h5M2 90h9M12 90h4M67 90h5M2 91h16M65 91h7M3 92h9M13 92h5M65 92h4" />
<path stroke="#00394c" d="M51 8h2M74 10h1M51 11h2M74 11h2M64 12h2M74 12h2M78 12h1M42 13h1M67 13h1M72 13h1M76 13h1M40 14h1M54 14h1M57 14h2M66 14h1M74 14h1M76 14h1M42 15h2M55 15h1M57 15h2M60 15h1M78 15h2M42 16h1M57 16h1M59 16h1M61 16h2M67 16h1M73 16h3M77 16h1M42 17h1M58 17h5M66 17h1M72 17h1M78 17h2M60 18h2M69 18h1M75 18h1M5 19h1M37 19h1M71 19h1M28 20h1M31 20h1M66 20h1M70 20h2M30 21h1M33 21h1M66 21h2M71 21h1M24 22h1M33 22h1M7 23h1M25 23h1M73 23h2M21 24h2M26 24h2M73 24h1M87 24h1M14 25h1M28 25h1M73 25h1M79 25h1M81 25h2M7 26h1M12 26h1M19 26h1M23 26h1M25 26h1M72 26h1M77 26h1M79 26h4M85 26h1M13 27h1M22 27h1M25 27h1M76 27h1M80 27h1M84 27h1M23 28h1M78 28h5M85 28h1M22 29h2M74 29h1M77 29h4M83 29h2M86 29h1M88 29h1M12 30h1M23 30h2M78 30h3M83 30h3M1 31h1M5 31h1M12 31h2M17 31h1M76 31h2M79 31h3M83 31h3M0 32h1M3 32h1M13 32h1M15 32h1M76 32h1M79 32h2M83 32h2M0 33h2M3 33h3M13 33h4M19 33h2M77 33h7M85 33h2M0 34h4M5 34h5M12 34h5M18 34h2M77 34h5M0 35h5M6 35h12M20 35h2M78 35h5M0 36h4M5 36h7M13 36h9M79 36h3M83 36h2M86 36h1M90 36h3M0 37h5M6 37h13M80 37h3M84 37h2M89 37h1M91 37h1M93 37h1M3 38h2M6 38h1M8 38h4M13 38h7M80 38h4M85 38h1M90 38h1M92 38h1M0 39h1M2 39h2M5 39h1M7 39h1M9 39h9M20 39h1M81 39h3M1 40h2M7 40h1M9 40h2M13 40h1M15 40h6M83 40h1M87 40h1M0 41h1M7 41h2M13 41h1M18 41h2M86 41h1M0 42h1M2 42h1M7 42h1M12 42h1M16 42h1M84 42h1M86 42h1M18 43h1M82 43h4M87 43h1M5 44h2M8 44h1M82 44h3M6 45h1M8 45h1M83 45h1M6 46h1M8 46h1M7 47h3M87 47h1M8 48h1M10 48h1M86 48h3M14 49h1M87 49h1M10 50h1M12 50h1M14 50h1M19 50h1M86 50h1M89 50h2M12 51h2M18 51h1M86 51h3M90 51h1M13 52h1M18 52h1M87 52h1M92 52h1M17 53h1M84 53h1M86 53h1M89 53h1M12 54h1M19 54h1M84 54h1M89 54h3M85 55h1M90 55h2M93 55h1M14 56h1M88 56h1M86 57h1M90 57h1M16 59h1M89 59h1M20 60h2M21 61h1M18 62h1M85 62h1M92 62h2M15 63h1M18 63h1M21 63h2M78 63h1M82 63h3M94 63h1M14 64h1M16 64h3M77 64h1M83 64h2M88 64h1M93 64h1M16 65h1M19 65h1M21 65h1M23 65h1M77 65h1M79 65h1M83 65h2M86 65h1M91 65h2M16 66h3M20 66h2M79 66h2M85 66h4M18 67h1M21 67h1M75 67h1M79 67h2M82 67h1M85 67h1M87 67h1M89 67h1M92 67h1M80 68h1M87 68h1M72 69h3M76 69h1M78 69h1M72 70h1M77 70h1M72 71h1M76 71h1M27 72h1M29 72h1M73 72h1M26 73h4M24 74h6M31 74h1M65 74h1M23 75h1M25 75h3M29 75h1M34 75h3M25 76h1M27 76h3M34 76h4M39 76h1M62 76h4M68 76h1M70 76h1M34 77h1M38 77h1M42 77h2M57 77h4M63 77h1M65 77h2M69 77h1M28 78h1M32 78h1M45 78h1M54 78h1M56 78h3M67 78h1M29 79h1M31 79h1M35 79h1M42 79h3M46 79h2M58 79h3M62 79h1M64 79h1M66 79h2M30 80h1M32 80h1M35 80h1M37 80h1M40 80h5M46 80h1M56 80h3M61 80h1M64 80h2M30 81h3M35 81h1M39 81h7M53 81h1M56 81h1M58 81h2M61 81h4M66 81h1M29 82h1M31 82h1M36 82h2M39 82h2M52 82h3M59 82h1M61 82h3M30 83h1M37 83h2M47 83h1M60 83h2M39 85h1" />
<path stroke="#003547" d="M55 9h1M54 10h1M58 11h2M55 12h1M60 12h1M60 13h1M54 16h3M57 17h1M83 37h1M84 38h1M84 39h2M81 40h1M85 40h1M84 41h2M83 42h1M85 42h1M86 43h1" />
<path stroke="#003344" d="M84 13h1M71 14h1M82 14h1M80 15h1M86 15h1M88 15h1M79 16h2M86 16h1M80 17h2M83 17h1M85 17h1M77 18h1M79 18h1M82 41h1M85 48h1M82 49h2M86 49h1M82 50h1" />
<path stroke="#003749" d="M38 14h2M41 14h1M36 15h2M41 15h1M36 16h1M38 16h3M35 17h1M39 17h3M36 18h1M38 18h3M35 19h1M38 19h1M34 20h1M36 20h1M29 22h1M32 22h1M28 24h2M29 25h1M84 56h1M85 57h1M84 59h1M86 59h1M84 60h1" />
<path stroke="#002a39" d="M68 14h1M82 15h1M71 16h2M82 16h1M73 17h1M75 17h1M82 17h1M84 17h1M71 18h2M68 19h2M72 19h1M79 19h1M67 20h3M73 20h1M77 20h1M68 21h3M72 21h4M69 22h1M71 22h5M71 23h2M75 23h1M71 24h2M74 24h3M71 25h2M74 25h1M76 25h2M74 26h1M78 26h1M74 27h2M77 27h2M74 28h4M75 29h2M75 30h2M77 32h2" />
<path stroke="#005e7d" d="M87 16h2M82 18h1M86 18h1M82 19h2M81 20h1M83 20h1" />
<path stroke="#fbffab" d="M43 17h12M41 18h17M39 19h22M37 20h13M52 20h11M35 21h15M51 21h15M34 22h17M54 22h14M32 23h38M31 24h40M30 25h41M29 26h43M28 27h45M27 28h47M26 29h48M25 30h8M34 30h34M70 30h5M24 31h45M70 31h6M24 32h52M24 33h53M23 34h54M23 35h55M23 36h56M22 37h58M21 38h59M21 39h60M21 40h35M57 40h24M21 41h60M20 42h21M42 42h40M20 43h62M20 44h26M48 44h11M61 44h21M20 45h26M48 45h11M61 45h6M68 45h10M80 45h2M20 46h12M33 46h12M48 46h11M62 46h16M79 46h3M20 47h11M33 47h12M48 47h11M63 47h16M81 47h1M20 48h7M33 48h10M47 48h13M63 48h17M81 48h1M20 49h8M33 49h9M46 49h15M65 49h8M75 49h7M20 50h10M35 50h3M45 50h17M66 50h5M75 50h7M20 51h11M43 51h20M75 51h7M20 52h13M40 52h24M73 52h9M20 53h62M20 54h62M20 55h61M21 56h60M21 57h60M21 58h29M51 58h5M57 58h5M63 58h17M22 59h28M51 59h5M57 59h23M22 60h28M52 60h3M56 60h23M22 61h29M55 61h15M71 61h8M23 62h6M31 62h11M43 62h27M72 62h6M23 63h6M31 63h47M24 64h3M31 64h46M24 65h4M30 65h46M25 66h50M26 67h49M26 68h47M27 69h45M28 70h42M29 71h40M30 72h38M33 73h18M53 73h13M35 74h16M53 74h12M37 75h28M40 76h22M44 77h13" />
<path stroke="#004d69" d="M86 17h1M83 18h1M80 19h2M78 20h2M76 21h1M80 21h1M76 22h1M76 23h1" />
<path stroke="#005976" d="M88 19h1M84 20h1M86 20h1" />
<path stroke="#c1c484" d="M50 20h2M50 21h1M51 22h3M33 30h1M68 30h2M69 31h1M56 40h1M41 42h1M67 45h1M78 45h2M32 46h1M78 46h1M31 47h2M79 47h2M27 48h3M32 48h1M80 48h1M28 49h2M62 58h1M70 61h1M29 62h2M42 62h1M70 62h2M29 63h2M27 64h4M28 65h2M51 73h2M51 74h2" />
<path stroke="#006384" d="M80 22h1M35 86h1M60 89h1M58 90h1M60 90h1M56 92h1M58 92h1" />
<path stroke="#004963" d="M81 22h1" />
<path stroke="#7d8055" d="M46 44h2M59 44h2M46 45h2M59 45h2M45 46h3M59 46h3M45 47h3M59 47h4M30 48h2M43 48h4M60 48h3M30 49h3M42 49h4M61 49h4M73 49h2M30 50h5M38 50h7M62 50h4M71 50h4M31 51h12M63 51h12M33 52h7M64 52h9M50 58h1M56 58h1M50 59h1M56 59h1M50 60h2M55 60h1M51 61h4" />
<path stroke="#00698c" d="M31 83h2" />
<path stroke="#004c67" d="M50 87h1M54 87h1M50 88h1M52 88h2" />
</svg>