<svg xmlns="http://www.w3.org/2000/svg" viewBox="0 -0.5 100 100" shape-rendering="crispEdges">
<metadata>Made with Pixels to Svg https://codepen.io/shshaw/pen/XbxvNj</metadata>
<path stroke="#2bb1ff" d="M0 0h5M14 0h65M85 0h15M0 1h5M15 1h35M51 1h27M85 1h12M0 2h6M16 2h32M53 2h24M85 2h9M0 3h6M17 3h30M54 3h22M84 3h10M0 4h7M19 4h28M54 4h21M84 4h9M0 5h8M20 5h27M54 5h20M83 5h10M0 6h9M21 6h25M54 6h19M83 6h9M0 7h9M22 7h24M55 7h17M82 7h10M0 8h10M23 8h23M55 8h16M82 8h9M0 9h11M24 9h22M55 9h15M82 9h9M0 10h11M25 10h20M55 10h14M81 10h10M0 11h12M26 11h19M55 11h13M81 11h9M0 12h13M27 12h18M56 12h11M80 12h10M0 13h13M28 13h17M56 13h9M80 13h10M0 14h14M29 14h16M56 14h8M79 14h11M0 15h15M30 15h15M56 15h7M79 15h5M0 16h16M31 16h14M57 16h5M79 16h4M0 17h16M32 17h13M57 17h4M78 17h5M0 18h17M34 18h11M57 18h3M1 19h17M35 19h9M57 19h2M1 20h17M36 20h8M57 20h1M97 20h3M2 21h17M37 21h7M94 21h6M2 22h3M10 22h10M38 22h6M91 22h9M11 23h10M39 23h4M76 23h16M95 23h5M13 24h8M40 24h3M76 24h14M96 24h4M15 25h7M41 25h2M76 25h12M96 25h4M17 26h6M75 26h11M96 26h4M17 27h6M75 27h9M95 27h5M15 28h9M74 28h8M94 28h6M14 29h11M74 29h4M93 29h7M13 30h12M73 30h3M92 30h8M17 31h9M73 31h1M91 31h7M20 32h7M90 32h7M0 33h5M24 33h4M89 33h7M0 34h6M88 34h8M0 35h8M87 35h9M0 36h9M86 36h9M0 37h11M85 37h10M0 38h13M84 38h8M0 39h14M83 39h7M0 40h16M82 40h8M0 41h17M81 41h9M0 42h19M80 42h10M0 43h21M79 43h21M0 44h22M83 44h17M0 45h23M87 45h13M0 46h21M92 46h8M0 47h17M96 47h4M0 48h13M0 49h8M0 50h4M96 56h4M91 57h9M86 58h14M81 59h19M77 60h23M78 61h22M9 62h3M80 62h20M0 63h18M81 63h19M0 64h26M82 64h18M0 65h25M83 65h17M0 66h25M84 66h16M0 67h24M85 67h15M0 68h24M86 68h14M0 69h23M86 69h14M0 70h23M75 70h2M86 70h14M9 71h13M76 71h5M85 71h15M10 72h11M76 72h24M10 73h11M77 73h23M11 74h9M78 74h22M12 75h8M79 75h21M12 76h7M51 76h1M80 76h20M12 77h7M33 77h1M51 77h1M80 77h20M12 78h6M31 78h3M50 78h3M64 78h1M81 78h19M12 79h6M30 79h4M49 79h5M64 79h2M82 79h18M12 80h5M29 80h5M49 80h5M64 80h3M83 80h17M12 81h5M27 81h6M48 81h7M64 81h4M84 81h16M12 82h4M26 82h7M47 82h9M64 82h6M84 82h16M12 83h5M24 83h9M47 83h9M64 83h7M85 83h15M12 84h5M26 84h7M46 84h11M64 84h8M86 84h14M12 85h5M27 85h6M46 85h13M63 85h10M87 85h13M27 86h6M45 86h30M87 86h13M27 87h6M44 87h33M88 87h12M27 88h6M44 88h34M89 88h11M27 89h6M43 89h36M90 89h10M28 90h4M42 90h38M91 90h9M42 91h39M91 91h9M40 92h42M92 92h8M48 93h36M93 93h7M50 94h35M94 94h6M50 95h36M95 95h5M51 96h36M95 96h5M51 97h37M96 97h4M51 98h39M97 98h3M50 99h41M97 99h3" />
<path stroke="#30b9ff" d="M5 0h1M84 1h1M6 2h1M83 3h1M17 4h1M82 5h1M9 6h1M81 8h1M11 9h1M80 10h1M13 12h1M79 12h1M45 15h1M78 15h1M16 16h1M77 17h1M32 18h1M18 19h1M44 20h1M21 23h1M43 24h1M91 24h1M89 25h1M23 26h1M87 26h1M85 27h1M83 28h1M25 29h1M81 29h1M78 30h1M15 31h1M18 32h1M22 33h1M28 33h1M7 34h1M26 34h1M10 36h1M12 37h1M15 39h1M18 41h1M20 42h1M78 43h1M23 44h1M81 44h1M85 45h1M22 46h1M90 46h1M18 47h1M94 47h1M14 48h1M98 48h1M9 49h1M5 50h1M1 51h1M94 56h1M89 57h1M84 58h1M79 59h1M78 62h1M73 69h2M78 70h1M82 71h2M75 72h1M79 77h1M83 82h1M76 86h1M86 86h1M40 90h1M90 91h1M39 92h1M83 92h1M94 96h1M89 97h1M96 99h1" />
<path stroke="#37c6ff" d="M6 0h1M83 1h1M7 2h1M82 3h1M17 5h1M81 5h1M10 6h1M48 7h1M52 8h1M80 8h1M12 9h1M79 10h1M47 11h1M14 12h1M78 12h1M53 13h1M46 15h1M77 15h1M17 16h1M54 17h1M76 17h1M73 18h1M19 19h1M32 19h1M45 20h1M22 23h1M44 24h1M73 24h1M91 25h1M24 26h1M89 26h1M87 27h1M85 28h1M26 29h1M83 29h1M81 30h1M11 31h1M15 32h1M7 33h1M18 33h1M29 33h1M22 34h1M10 35h1M26 35h1M12 36h1M15 38h1M18 40h1M20 41h1M23 43h1M77 43h1M81 45h1M85 46h1M22 47h1M90 47h1M18 48h1M94 48h1M14 49h1M9 50h1M5 51h1M1 52h1M94 55h1M89 56h1M84 57h1M79 58h1M75 59h1M78 63h1M28 64h1M74 68h1M36 69h1M78 69h1M82 70h2M51 72h1M74 72h1M23 73h1M35 73h1M31 75h1M67 75h1M48 76h1M54 76h1M66 76h1M67 77h1M78 77h1M27 78h1M46 79h1M56 79h1M69 79h1M72 79h1M24 80h1M72 81h1M19 82h1M21 82h1M35 82h1M58 82h1M82 82h1M43 84h1M76 85h1M85 86h1M41 87h1M39 90h1M34 91h1M83 91h1M89 91h1M38 92h1M89 96h1M93 96h1M95 99h1" />
<path stroke="#3fd3ff" d="M7 0h1M8 2h1M11 6h1M16 6h2M50 7h1M13 9h1M51 10h1M78 10h1M77 11h1M15 12h1M77 12h1M76 13h1M76 15h1M66 16h2M75 16h1M75 17h1M65 18h2M74 18h1M20 19h1M64 19h1M74 19h1M31 20h2M72 20h2M63 21h1M23 23h1M72 23h1M45 24h1M59 25h1M25 26h1M91 26h2M89 27h1M87 28h1M27 29h1M85 29h1M83 30h1M81 31h1M7 32h1M11 32h1M9 33h1M15 33h1M10 34h1M18 34h1M12 35h1M26 36h1M15 37h2M18 39h2M20 40h2M23 42h2M76 43h1M76 44h1M77 45h1M81 46h1M85 47h1M90 48h1M18 49h1M21 49h1M14 50h1M17 50h1M9 51h1M13 51h1M5 52h1M1 53h1M94 54h1M89 55h1M84 56h1M75 57h1M79 57h1M74 58h1M14 60h5M77 64h2M78 65h1M68 66h1M73 66h1M79 66h2M70 67h1M74 67h1M81 67h1M69 68h2M78 68h1M82 68h1M61 70h1M73 72h1M73 73h1M77 77h1M23 79h1M60 81h1M81 82h1M76 84h2M84 86h1M83 90h1M88 91h1M89 95h1M94 99h1" />
<path stroke="#fbf236" d="M8 0h3M80 0h3M9 1h3M80 1h3M9 2h4M79 2h3M10 3h4M78 3h4M11 4h3M77 4h5M11 5h4M77 5h4M12 6h4M76 6h5M12 7h5M76 7h4M13 8h5M49 8h1M75 8h5M14 9h5M49 9h2M74 9h5M15 10h5M49 10h2M73 10h5M15 11h6M49 11h3M73 11h4M16 12h6M49 12h3M72 12h5M17 13h6M48 13h4M71 13h5M17 14h7M48 14h4M70 14h6M18 15h8M48 15h4M69 15h6M18 16h9M48 16h4M68 16h7M19 17h9M48 17h4M67 17h7M20 18h9M47 18h6M67 18h6M21 19h9M47 19h6M66 19h7M21 20h10M47 20h6M65 20h7M23 21h10M47 21h7M64 21h7M23 22h11M47 22h7M63 22h8M24 23h11M46 23h8M62 23h9M25 24h12M46 24h8M61 24h9M25 25h13M44 25h12M61 25h9M26 26h14M41 26h18M60 26h10M26 27h44M91 27h1M27 28h42M89 28h3M28 29h41M86 29h5M29 30h39M84 30h6M29 31h39M82 31h7M9 32h1M30 32h39M80 32h8M10 33h5M30 33h40M78 33h9M12 34h5M29 34h42M76 34h9M14 35h9M28 35h44M74 35h10M15 36h11M28 36h55M17 37h64M19 38h61M21 39h58M22 40h56M24 41h52M25 42h50M25 43h50M24 44h52M24 45h47M72 45h4M24 46h21M47 46h8M57 46h14M73 46h8M24 47h21M47 47h9M60 47h10M73 47h11M24 48h20M46 48h11M63 48h5M72 48h17M22 49h21M46 49h13M71 49h28M19 50h11M31 50h12M45 50h19M69 50h31M14 51h17M33 51h8M45 51h55M8 52h23M35 52h4M44 52h56M4 53h29M42 53h57M0 54h34M40 54h54M0 55h89M0 56h83M0 57h47M48 57h7M56 57h18M0 58h47M49 58h5M56 58h18M0 59h48M50 59h3M55 59h19M28 60h21M54 60h21M28 61h23M53 61h22M29 62h47M30 63h47M31 64h38M71 64h6M30 65h38M72 65h6M30 66h38M75 66h4M29 67h40M76 67h4M28 68h41M79 68h3M28 69h8M38 69h32M80 69h3M27 70h8M39 70h22M63 70h8M27 71h7M39 71h22M64 71h8M26 72h8M39 72h9M53 72h8M64 72h9M25 73h9M39 73h9M54 73h7M65 73h8M24 74h8M38 74h9M55 74h6M66 74h8M24 75h6M38 75h9M56 75h5M68 75h7M23 76h6M38 76h8M57 76h4M69 76h7M23 77h5M38 77h8M57 77h4M70 77h7M22 78h3M38 78h8M58 78h3M72 78h6M38 79h7M59 79h2M73 79h6M38 80h7M60 80h1M74 80h6M37 81h7M75 81h5M37 82h6M76 82h5M37 83h6M77 83h5M37 84h5M78 84h5M36 85h6M79 85h5M36 86h6M80 86h4M36 87h5M82 87h3M36 88h4M82 88h4M36 89h3M83 89h4M36 90h3M84 90h4M36 91h2M85 91h3M36 92h2M86 92h3M87 93h3M88 94h3M90 95h2M90 96h3M91 97h2M92 98h2" />
<path stroke="#3dcfff" d="M11 0h1M7 1h1M82 2h1M9 3h1M10 4h1M14 4h1M10 5h1M15 5h2M17 7h2M75 7h1M12 8h1M19 8h1M74 8h1M20 9h1M73 9h1M79 9h1M14 10h1M21 10h1M72 10h1M14 11h1M22 11h1M71 11h1M78 11h1M23 12h1M70 12h1M16 13h1M24 13h1M69 13h1M77 13h1M25 14h1M68 14h1M17 15h1M26 15h1M67 15h1M75 15h1M27 16h1M76 16h1M28 17h1M47 17h1M74 17h1M19 18h1M29 18h1M75 18h1M30 19h2M53 19h1M73 19h1M22 21h1M33 21h1M22 22h1M34 22h1M35 23h1M45 23h1M24 24h1M24 25h1M57 25h1M92 25h1M90 26h1M88 27h1M26 28h1M70 28h1M86 28h1M84 29h1M28 30h1M82 30h1M12 32h1M29 32h1M8 33h1M16 33h1M77 33h1M19 34h1M11 35h1M23 35h1M13 36h2M27 36h1M81 37h1M16 38h3M80 38h1M20 39h1M79 39h1M19 40h1M78 40h1M21 41h3M77 41h1M76 42h1M75 43h1M78 45h1M82 46h1M86 47h1M21 48h1M91 48h1M17 49h1M13 50h1M18 50h1M8 51h1M4 52h1M0 53h1M95 54h1M90 55h1M85 56h1M74 57h1M80 57h1M75 58h1M74 59h1M23 60h5M77 63h1M79 65h1M74 66h1M71 67h1M73 67h1M77 68h1M70 69h1M83 69h1M71 70h1M72 71h1M74 73h1M74 74h1M75 75h1M37 76h1M76 76h1M22 77h1M37 77h1M37 78h1M57 78h1M78 78h1M37 79h1M73 81h1M80 81h1M59 82h1M74 82h1M75 83h2M82 83h1M36 84h1M77 85h2M79 86h1M80 87h1M85 87h1M81 88h1M39 89h1M82 89h1M38 91h1M84 91h1M89 92h1M93 97h1M93 99h1" />
<path stroke="#35c2ff" d="M12 0h1M6 1h1M83 2h1M16 4h1M82 4h1M9 5h1M48 6h1M81 6h1M52 7h1M11 8h1M80 9h1M47 10h1M13 11h1M79 11h1M53 12h1M78 13h1M46 14h1M16 15h1M54 16h1M77 16h1M18 18h1M31 18h1M76 18h1M45 19h1M55 21h1M21 22h1M44 23h1M92 24h2M23 25h1M90 25h1M94 25h1M88 26h1M86 27h1M25 28h1M84 28h1M82 29h1M12 31h1M16 32h1M28 32h1M19 33h1M8 34h1M23 34h1M27 35h1M11 36h1M13 37h1M16 39h1M19 41h1M21 42h1M78 44h1M82 45h1M86 46h1M21 47h1M91 47h1M17 48h1M95 48h1M13 49h1M99 49h1M8 50h1M4 51h1M0 52h1M95 55h1M90 56h1M85 57h1M80 58h1M75 60h1M77 62h1M28 63h1M72 68h2M77 69h1M84 69h1M81 70h1M75 73h1M79 78h1M19 80h1M23 81h1M35 81h1M57 81h1M83 83h1M77 86h1M86 87h1M40 89h1M34 90h1M39 91h1M84 92h1M90 92h1M90 97h1M94 97h1M92 99h1" />
<path stroke="#2db5ff" d="M13 0h1M79 0h1M5 1h1M14 1h1M78 1h1M15 2h1M49 2h1M51 2h1M77 2h1M84 2h1M6 3h1M16 3h1M76 3h1M7 4h1M18 4h1M75 4h1M83 4h1M8 5h1M19 5h1M47 5h1M74 5h1M20 6h1M73 6h1M82 6h1M9 7h1M21 7h1M72 7h1M10 8h1M22 8h1M71 8h1M23 9h1M70 9h1M81 9h1M11 10h1M24 10h1M54 10h1M69 10h1M12 11h1M25 11h1M68 11h1M80 11h1M26 12h1M67 12h1M13 13h1M27 13h1M66 13h1M79 13h1M14 14h1M28 14h1M45 14h1M15 15h1M29 15h1M30 16h1M78 16h1M16 17h1M31 17h1M17 18h1M33 18h1M34 19h1M44 19h1M56 19h1M18 20h1M35 20h1M19 21h1M36 21h1M20 22h1M37 22h1M38 23h1M43 23h1M75 23h1M92 23h3M21 24h1M39 24h1M90 24h1M95 24h1M22 25h1M40 25h1M88 25h1M95 25h1M86 26h1M95 26h1M23 27h1M84 27h1M94 27h1M24 28h1M82 28h1M93 28h1M92 29h1M12 30h1M25 30h1M91 30h1M16 31h1M26 31h1M90 31h1M19 32h1M27 32h1M71 32h1M89 32h1M5 33h1M23 33h1M88 33h1M6 34h1M27 34h2M87 34h1M8 35h1M86 35h1M9 36h1M85 36h1M11 37h1M84 37h1M13 38h1M83 38h1M14 39h1M82 39h1M16 40h1M81 40h1M17 41h1M80 41h1M19 42h1M79 42h1M21 43h1M22 44h1M82 44h1M86 45h1M21 46h1M91 46h1M17 47h1M95 47h1M13 48h1M99 48h1M8 49h1M4 50h1M0 51h1M95 56h1M90 57h1M85 58h1M80 59h1M76 60h1M77 61h1M79 62h1M18 63h8M80 63h1M81 64h1M82 65h1M83 66h1M84 67h1M85 68h1M85 69h1M74 70h1M77 70h1M85 70h1M75 71h1M81 71h1M84 71h1M76 73h1M77 74h1M78 75h1M34 76h1M79 76h1M34 77h1M63 77h1M34 78h1M63 78h1M80 78h1M34 79h1M63 79h1M81 79h1M63 80h1M82 80h1M17 81h1M63 81h1M83 81h1M17 83h1M84 83h1M18 84h1M33 84h1M85 84h1M33 85h1M74 85h1M86 85h1M33 86h1M75 86h1M33 87h1M77 87h1M87 87h1M33 88h1M78 88h1M88 88h1M79 89h1M89 89h1M80 90h1M90 90h1M40 91h1M81 91h1M82 92h1M91 92h1M84 93h1M92 93h1M85 94h1M93 94h1M86 95h1M94 95h1M87 96h1M88 97h1M95 97h1M90 98h1M96 98h1M91 99h1" />
<path stroke="#3acbff" d="M83 0h1M12 1h1M13 2h1M8 3h1M14 3h1M9 4h1M15 4h1M76 5h1M18 6h1M75 6h1M11 7h1M19 7h1M74 7h1M80 7h1M18 8h1M20 8h1M73 8h1M19 9h1M21 9h1M72 9h1M13 10h1M20 10h1M22 10h1M52 10h1M71 10h1M21 11h1M23 11h1M52 11h1M70 11h1M72 11h1M22 12h1M24 12h1M69 12h1M71 12h1M15 13h1M23 13h1M25 13h1M47 13h1M68 13h1M70 13h1M16 14h1M24 14h1M26 14h1M67 14h1M69 14h1M77 14h1M27 15h1M53 15h1M66 15h1M68 15h1M28 16h1M18 17h1M29 17h1M46 17h1M30 18h1M46 18h1M54 19h1M20 20h1M33 20h1M54 20h1M21 21h1M34 21h1M45 21h1M35 22h1M45 22h1M36 23h1M23 24h1M37 24h1M55 24h1M38 25h1M93 25h1M59 26h1M93 26h1M25 27h1M92 27h1M70 29h1M27 30h1M68 30h1M9 31h2M28 31h1M68 31h1M13 32h2M17 33h1M76 33h1M9 34h1M20 34h2M74 34h1M85 34h1M24 35h2M84 35h1M83 36h1M14 37h1M82 37h1M81 38h1M17 39h1M80 39h1M79 40h1M76 41h1M78 41h1M22 42h1M75 42h1M77 42h1M77 44h1M79 45h2M83 46h2M87 47h3M19 48h2M92 48h2M15 49h2M10 50h3M6 51h2M2 52h2M96 54h4M91 55h3M86 56h3M81 57h3M76 58h3M0 61h13M14 61h7M22 61h6M75 61h1M76 62h1M29 64h1M79 64h1M28 65h1M80 65h1M29 66h1M81 66h1M27 67h1M72 67h1M82 67h1M71 68h1M75 68h2M83 68h1M26 69h1M37 69h1M71 69h1M79 69h1M72 70h1M26 71h1M73 71h1M35 72h1M24 73h1M48 73h1M53 73h1M23 74h1M47 74h1M62 74h1M64 74h1M75 74h1M48 75h1M55 75h1M76 75h1M22 76h1M36 76h1M47 76h1M55 76h1M61 76h1M77 76h1M36 77h1M61 77h1M68 77h1M26 78h1M36 78h1M61 78h1M69 78h2M36 79h1M45 79h1M61 79h1M71 79h1M79 79h1M36 80h1M61 80h1M73 80h1M80 80h1M61 81h1M74 81h1M81 81h1M73 82h1M75 82h1M43 83h1M74 83h1M35 84h1M42 84h1M75 84h1M83 84h1M35 85h1M84 85h1M35 86h1M78 86h1M35 87h1M79 87h1M81 87h1M35 88h1M40 88h1M80 88h1M86 88h1M81 89h1M87 89h1M82 90h1M88 90h1M85 92h1M86 93h1M90 93h1M87 94h1M91 94h1M88 95h1M92 95h1M94 98h1" />
<path stroke="#32beff" d="M84 0h1M13 1h1M79 1h1M14 2h1M78 2h1M7 3h1M15 3h1M77 3h1M8 4h1M76 4h1M18 5h1M48 5h1M75 5h1M19 6h1M74 6h1M10 7h1M20 7h1M73 7h1M81 7h1M21 8h1M72 8h1M22 9h1M71 9h1M12 10h1M23 10h1M53 10h1M70 10h1M24 11h1M69 11h1M25 12h1M68 12h1M14 13h1M26 13h1M67 13h1M15 14h1M27 14h1M66 14h1M78 14h1M28 15h1M29 16h1M45 16h1M17 17h1M30 17h1M45 17h1M45 18h1M33 19h1M55 19h1M19 20h1M34 20h1M20 21h1M35 21h1M44 21h1M36 22h1M44 22h1M37 23h1M74 23h1M22 24h1M38 24h1M94 24h1M39 25h1M43 25h1M40 26h1M94 26h1M24 27h1M93 27h1M92 28h1M91 29h1M26 30h1M90 30h1M13 31h2M27 31h1M89 31h1M17 32h1M88 32h1M6 33h1M20 33h2M87 33h1M24 34h2M86 34h1M9 35h1M85 35h1M84 36h1M83 37h1M14 38h1M82 38h1M81 39h1M17 40h1M80 40h1M79 41h1M78 42h1M22 43h1M79 44h2M83 45h2M87 46h3M19 47h2M92 47h2M15 48h2M96 48h2M10 49h3M6 50h2M2 51h2M96 55h4M91 56h3M86 57h3M81 58h3M76 59h3M76 61h1M0 62h9M14 62h12M79 63h1M80 64h1M81 65h1M82 66h1M83 67h1M84 68h1M72 69h1M75 69h2M73 70h1M79 70h2M84 70h1M74 71h1M76 74h1M77 75h1M35 76h1M78 76h1M35 77h1M62 77h1M35 78h1M62 78h1M35 79h1M62 79h1M80 79h1M62 80h1M81 80h1M62 81h1M82 81h1M73 83h1M34 84h1M74 84h1M84 84h1M34 85h1M75 85h1M85 85h1M34 86h1M34 87h1M78 87h1M34 88h1M79 88h1M87 88h1M80 89h1M88 89h1M81 90h1M89 90h1M82 91h1M85 93h1M91 93h1M86 94h1M92 94h1M87 95h1M93 95h1M88 96h1M91 98h1M95 98h1" />
<path stroke="#42d8ff" d="M8 1h1M76 14h1M66 17h1M71 21h1M90 27h1M88 28h1M8 32h1M10 32h1M11 34h1M17 34h1M13 35h1M76 45h1M84 47h1M89 48h1M19 49h2M15 50h2M10 51h3M6 52h2M2 53h2M99 53h1M83 56h1M76 57h3M0 60h14M21 60h2M69 64h2M68 65h4M69 66h4M69 67h1M75 67h1M80 67h1" />
<path stroke="#2bb2ff" d="M50 1h1M47 3h1M53 3h1M46 6h1M54 7h1M45 10h1M55 12h1M56 16h1M75 25h1M74 27h1M73 29h1M78 29h2M76 30h1M72 31h1M74 31h1M25 65h1M24 67h1M23 69h1M21 72h1M20 74h1M19 76h1M32 77h1M50 77h1M52 77h1M18 78h1M28 80h1M48 80h1M54 80h1M33 81h1M68 81h1M16 82h1M25 82h1M46 83h1M56 83h1M63 84h1M45 85h1M43 88h1M32 90h1M41 91h1" />
<path stroke="#b5f4ff" d="M97 1h3M94 2h6M94 3h6M93 4h7M93 5h7M92 6h7M92 7h7M91 8h8M91 9h7M91 10h7M90 11h10M90 12h10M90 13h10M90 14h10M84 15h16M83 16h16M83 17h13M77 18h15M0 19h1M75 19h14M0 20h1M74 20h11M0 21h2M0 22h2M5 22h5M0 23h11M2 24h11M5 25h9M0 26h1M4 26h10M0 27h14M0 28h12M0 29h8M1 30h3M98 31h2M97 32h3M96 33h4M96 34h4M96 35h4M95 36h5M95 37h5M92 38h8M90 39h10M90 40h4M98 41h2M0 71h9M0 72h10M0 73h10M0 74h11M0 75h12M0 76h12M0 77h12M0 78h12M0 79h12M0 80h12M0 81h12M0 82h12M0 83h12M0 84h12M22 84h4M0 85h12M17 85h10M0 86h27M0 87h27M0 88h27M7 89h20M9 90h16M27 90h1M9 91h12M29 91h3M10 92h11M27 92h9M12 93h36M14 94h29M46 94h4M5 95h2M20 95h23M46 95h4M0 96h9M19 96h23M45 96h6M0 97h10M18 97h23M45 97h6M0 98h12M15 98h22M45 98h6M0 99h50" />
<path stroke="#2cb3ff" d="M48 2h1M52 2h1M47 4h1M53 4h1M46 7h1M54 8h1M45 11h1M55 13h1M65 13h1M64 14h1M63 15h1M62 16h1M56 17h1M61 17h1M60 18h1M59 19h1M58 20h1M75 24h1M22 71h1M33 76h1M64 77h1M30 78h1M49 78h1M53 78h1M65 78h1M29 79h1M66 79h1M17 80h1M67 80h1M26 81h1M47 81h1M55 81h1M33 82h1M70 82h1M23 83h1M63 83h1M71 83h1M17 84h1M57 84h1M72 84h1M59 85h1M73 85h1M44 86h1M42 89h1M32 91h1" />
<path stroke="#2eb7ff" d="M50 2h1M74 25h1M73 27h1M72 29h1M71 31h1M76 31h1M74 32h1M72 33h1M26 65h1M25 67h1M24 69h1M21 74h1M20 76h1M19 78h1M17 82h1M45 83h1M19 84h1" />
<path stroke="#2eb6ff" d="M48 3h1M52 3h1M53 6h1M46 9h1M54 11h1M45 13h1M55 15h1M56 20h1M80 29h1M71 33h1M26 63h1M22 72h1M32 76h1M49 77h1M53 77h1M28 79h1M34 80h1M47 80h1M55 80h1M68 80h1M25 81h1M22 83h1M57 83h1M20 84h1M58 84h1M62 84h1M44 85h1M42 88h1M33 89h1" />
<path stroke="#31bcff" d="M49 3h1M51 3h1M73 26h1M72 28h1M71 30h1M77 31h1M70 32h1M75 32h1M73 33h1M71 34h1M23 46h1M13 62h1M27 64h1M26 66h1M25 68h1M24 70h1M22 73h1M21 75h1M31 76h1M49 76h1M53 76h1M20 77h1M19 79h1M27 79h1M47 79h1M55 79h1M69 80h1M24 81h1M45 82h1M57 82h1M21 83h1M44 84h1M42 87h1" />
<path stroke="#33bfff" d="M50 3h1M52 6h1M47 9h1M53 11h1M46 13h1M54 15h1M65 15h1M64 16h1M63 17h1M62 18h1M61 19h1M55 20h1M60 20h1M59 21h1M58 22h1M23 72h1M52 74h1M32 75h1M62 76h1M65 76h1M29 77h1M48 77h1M54 77h1M66 77h1M67 78h1M25 80h1M35 80h1M46 80h1M56 80h1M71 81h1M22 82h1M72 82h1M19 83h2M43 85h1M41 88h1M34 89h1" />
<path stroke="#30baff" d="M48 4h1M52 4h1M47 7h1M53 8h1M46 11h1M54 13h1M55 17h1M57 22h1M74 24h1M27 63h1M51 74h1M34 82h1M18 83h1M62 83h1M33 91h1" />
<path stroke="#36c4ff" d="M49 4h1M51 4h1M69 32h1M28 62h1M61 83h1" />
<path stroke="#38c8ff" d="M50 4h1M29 63h1M35 70h1M24 72h1M32 74h1M53 74h1M47 77h1M55 77h1M25 79h1M45 80h1M60 83h1M42 85h1" />
<path stroke="#39c9ff" d="M49 5h1M51 5h1M48 8h1M52 9h1M47 12h1M53 14h1M46 16h1M65 16h1M64 17h1M54 18h1M63 18h1M62 19h1M61 20h1M60 21h1M59 22h1M55 23h1M58 23h1M56 24h1M79 31h1M24 43h1M13 61h1M30 64h1M36 73h1M49 73h1M36 74h1M36 75h1M66 75h1M67 76h1M57 80h1M72 80h1M22 81h1M20 82h1M61 82h1M35 83h1" />
<path stroke="#3ccdff" d="M50 5h1M49 6h1M51 7h1M48 10h1M52 13h1M47 15h1M52 16h1M53 17h1M46 20h1M54 22h1M22 48h1M35 71h1M23 75h1M20 81h1M36 82h1M35 90h1" />
<path stroke="#32bdff" d="M52 5h1M47 8h1M53 9h1M46 12h1M54 14h1M55 18h1M56 22h1M79 30h1M50 74h1M18 81h1M62 82h1M34 83h1M58 83h1M60 84h1" />
<path stroke="#2db4ff" d="M53 5h1M46 8h1M54 9h1M45 12h1M55 14h1M56 18h1M57 21h1M74 26h1M73 28h1M72 30h1M77 30h1M75 31h1M73 32h1M26 64h1M25 66h1M24 68h1M23 70h1M21 73h1M20 75h1M51 75h1M50 76h1M52 76h1M19 77h1M31 77h1M18 79h1M48 79h1M54 79h1M27 80h1M69 81h1M24 82h1M46 82h1M56 82h1M63 82h1M33 83h1M21 84h1M45 84h1M60 85h2M43 87h1M41 90h1" />
<path stroke="#2fb8ff" d="M47 6h1M53 7h1M46 10h1M54 12h1M65 14h1M64 15h1M55 16h1M63 16h1M62 17h1M61 18h1M60 19h1M59 20h1M56 21h1M58 21h1M34 75h1M65 77h1M29 78h1M66 78h1M67 79h1M34 81h1M71 82h1M72 83h1M73 84h1M33 90h1" />
<path stroke="#3ed1ff" d="M50 6h1M48 12h1M64 20h1M71 26h1M37 72h1M21 80h2" />
<path stroke="#3bccff" d="M51 6h1M48 9h1M52 12h1M47 14h1M53 16h1M52 17h1M46 19h1M54 21h1M57 24h1M56 25h1M72 25h1M71 27h1M23 48h1M25 72h1M34 72h1M36 72h1M54 74h1M65 74h1M46 77h1M56 77h1M21 78h1M20 80h1M23 80h1M36 81h1M58 81h1M35 89h1" />
<path stroke="#9cd2db" d="M99 6h1M99 7h1M99 8h1M98 9h2M98 10h2M99 16h1M96 17h4M92 18h8M89 19h11M85 20h12M73 21h21M73 22h18M0 24h2M0 25h5M14 25h1M1 26h3M14 26h3M14 27h3M12 28h3M8 29h6M0 30h1M4 30h8M0 31h9M0 32h7M94 40h6M90 41h8M90 42h10M0 89h7M0 90h9M25 90h2M0 91h9M21 91h8M0 92h10M21 92h6M0 93h12M0 94h14M43 94h3M0 95h5M7 95h13M43 95h3M9 96h10M42 96h3M10 97h8M41 97h4M12 98h3M37 98h8" />
<path stroke="#3dd0ff" d="M49 7h1M51 8h1M48 11h1M65 17h1M64 18h1M63 19h1M65 19h1M62 20h1M61 21h1M60 22h1M59 23h1M58 24h1M72 24h1M60 25h1M80 31h1M38 70h1M62 70h1M36 71h1M63 71h1M38 72h1M64 73h1M61 74h1M21 79h1M60 82h1M35 91h1" />
<path stroke="#41d6ff" d="M50 8h1M71 22h1M71 24h1M20 60h1M62 72h1M59 80h1" />
<path stroke="#3fd2ff" d="M51 9h1M58 25h1M37 70h1" />
<path stroke="#3cceff" d="M52 14h1M52 15h1M47 16h1M53 18h1M53 20h1M46 21h1M46 22h1M69 29h1M78 32h1M36 70h1M37 73h2M37 74h1M37 75h1M25 78h1M24 79h1M57 79h1M37 80h1M21 81h1M36 83h1" />
<path stroke="#3fd4ff" d="M63 20h1M70 24h1M71 25h1M37 71h1M58 79h1M59 81h1" />
<path stroke="#40d5ff" d="M62 21h1M61 22h2M72 22h1M60 23h2M59 24h2M19 60h1M62 71h1" />
<path stroke="#40d4ff" d="M72 21h1M70 25h1M70 26h1M79 32h1M63 72h1M61 73h1M22 79h1" />
<path stroke="#38c7ff" d="M55 22h1M72 26h1M71 28h1M70 30h1M77 32h1M75 33h1M73 34h1M23 47h1M27 66h1M26 68h1M25 70h1M49 72h1M34 73h1M52 73h1M49 74h1M22 75h1M65 75h1M29 76h1M68 76h1M21 77h1M28 77h1M68 78h1M71 78h1M20 79h1M71 80h1M19 81h1M44 82h1" />
<path stroke="#3bcdff" d="M54 23h1M69 30h1M75 34h1M73 35h1M29 65h1M28 66h1M28 67h1M27 68h1M27 69h1M26 70h1M48 74h1M47 75h1M61 75h1M43 82h1" />
<path stroke="#35c3ff" d="M56 23h2M80 30h1M50 73h1" />
<path stroke="#41d7ff" d="M71 23h1M61 71h1M61 72h1" />
<path stroke="#3acaff" d="M73 23h1M54 24h1M69 31h1M72 35h1M21 61h1M25 71h1M34 71h1M52 72h1M63 74h1M30 75h1M54 75h1M46 76h1M56 76h1M69 77h1M46 78h1M56 78h1M70 79h1M44 81h1" />
<path stroke="#34c1ff" d="M73 25h1M72 27h1M71 29h1M70 31h1M76 32h1M74 33h1M72 34h1M27 65h1M26 67h1M25 69h1M24 71h1M51 73h1M22 74h1M33 74h1M49 75h1M53 75h1M64 75h1M21 76h1M30 76h1M20 78h1M47 78h1M55 78h1M26 79h1M70 80h1M45 81h1M44 83h1M42 86h1" />
<path stroke="#3ed2ff" d="M70 27h1M38 71h1M62 73h2M58 80h1" />
<path stroke="#3ccfff" d="M69 28h1" />
<path stroke="#36c3ff" d="M78 31h1M62 75h1" />
<path stroke="#2cb2ff" d="M72 32h1M62 85h1" />
<path stroke="#2fb7ff" d="M70 33h1M23 45h1M50 75h1" />
<path stroke="#a16300" d="M71 45h1M45 46h2M55 46h2M71 46h2M45 47h2M56 47h4M70 47h3M44 48h2M57 48h6M68 48h4M43 49h3M59 49h12M30 50h1M43 50h2M64 50h5M31 51h2M41 51h4M31 52h4M39 52h5M33 53h9M34 54h6M47 57h1M55 57h1M47 58h2M54 58h2M48 59h2M53 59h2M49 60h5M51 61h2" />
<path stroke="#31bbff" d="M12 62h1M59 84h1M61 84h1" />
<path stroke="#33beff" d="M26 62h1M34 74h1M35 75h1M28 78h1M68 79h1M18 82h1" />
<path stroke="#34c0ff" d="M27 62h1M35 74h1M63 75h1" />
<path stroke="#2fb9ff" d="M23 71h1M33 75h1M52 75h1M63 76h2M30 77h1M48 78h1M54 78h1M18 80h1M26 80h1M46 81h1M56 81h1M70 81h1M23 82h1M43 86h1M41 89h1" />
<path stroke="#37c5ff" d="M48 72h1M50 72h1M59 83h1" />
</svg>