<svg xmlns="http://www.w3.org/2000/svg" viewBox="0 -0.5 100 100" shape-rendering="crispEdges">
<metadata>Made with Pixels to Svg https://codepen.io/shshaw/pen/XbxvNj</metadata>
<path stroke="#4a269e" d="M0 0h100M0 1h100M0 2h8M9 2h20M30 2h46M77 2h22M0 3h8M9 3h47M62 3h38M0 4h2M3 4h5M9 4h31M41 4h9M51 4h1M67 4h33M0 5h7M10 5h41M69 5h31M0 6h8M9 6h41M73 6h13M89 6h11M0 7h8M9 7h41M77 7h6M89 7h4M94 7h6M0 8h8M9 8h41M88 8h5M94 8h6M0 9h32M33 9h16M88 9h5M94 9h6M0 10h48M87 10h5M95 10h5M0 11h47M86 11h7M94 11h6M0 12h46M85 12h8M94 12h6M0 13h45M73 13h5M82 13h11M94 13h6M0 14h45M71 14h29M0 15h43M70 15h30M0 16h31M32 16h10M70 16h10M81 16h19M0 17h30M33 17h8M70 17h9M82 17h18M0 18h31M32 18h9M70 18h10M81 18h19M0 19h8M9 19h30M71 19h29M0 20h17M72 20h28M0 21h12M72 21h28M0 22h10M73 22h27M0 23h9M77 23h23M0 24h9M93 24h7M0 25h9M93 25h3M97 25h3M0 26h10M92 26h8M0 27h11M91 27h9M0 28h12M89 28h11M0 29h12M87 29h13M0 30h5M6 30h1M8 30h5M85 30h15M0 31h6M7 31h7M83 31h17M0 32h5M6 32h1M8 32h7M81 32h6M88 32h12M0 33h16M80 33h20M0 34h20M78 34h22M0 35h19M75 35h25M0 36h19M73 36h27M0 37h18M73 37h27M0 38h18M73 38h27M0 39h17M73 39h1M76 39h24M0 40h17M76 40h6M83 40h1M85 40h15M0 41h17M76 41h7M84 41h10M95 41h5M0 42h17M75 42h7M83 42h1M85 42h15M0 43h17M20 43h1M75 43h25M0 44h17M18 44h3M74 44h26M0 45h21M74 45h26M0 46h21M73 46h27M0 47h4M5 47h16M26 47h1M73 47h27M0 48h22M26 48h2M72 48h28M0 49h23M26 49h3M73 49h27M0 50h24M26 50h3M71 50h29M0 51h13M14 51h11M70 51h30M0 52h25M76 52h22M99 52h1M0 53h24M77 53h23M0 54h23M77 54h23M0 55h23M78 55h2M81 55h19M0 56h23M78 56h22M0 57h23M78 57h22M0 58h23M78 58h22M0 59h23M78 59h22M0 60h23M78 60h22M0 61h13M14 61h10M38 61h1M78 61h22M0 62h13M14 62h9M38 62h2M61 62h2M77 62h12M90 62h10M0 63h13M14 63h9M38 63h4M59 63h4M77 63h23M0 64h12M15 64h8M39 64h5M57 64h6M77 64h23M0 65h13M14 65h9M37 65h7M55 65h9M76 65h24M0 66h13M14 66h10M36 66h8M55 66h10M75 66h25M0 67h13M14 67h11M35 67h9M55 67h4M60 67h7M74 67h26M0 68h26M32 68h9M59 68h10M73 68h27M0 69h4M5 69h8M14 69h25M61 69h39M0 70h38M62 70h38M0 71h35M65 71h35M0 72h32M68 72h15M84 72h16M0 73h27M28 73h2M70 73h12M85 73h15M0 74h29M71 74h5M77 74h6M84 74h16M0 75h26M74 75h26M0 76h25M75 76h25M0 77h24M76 77h24M0 78h23M77 78h23M0 79h22M78 79h22M0 80h21M79 80h21M0 81h20M80 81h20M0 82h11M12 82h8M80 82h20M0 83h20M80 83h12M93 83h7M0 84h20M80 84h20M0 85h20M80 85h20M0 86h20M80 86h20M0 87h20M80 87h20M0 88h20M80 88h20M0 89h20M80 89h20M0 90h20M80 90h20M0 91h20M80 91h20M0 92h21M80 92h20M0 93h21M80 93h11M92 93h1M94 93h6M0 94h21M81 94h11M93 94h7M0 95h3M4 95h12M17 95h4M80 95h11M92 95h1M94 95h6M0 96h2M5 96h16M23 96h1M76 96h1M80 96h20M0 97h3M4 97h20M76 97h3M80 97h20M0 98h26M74 98h26M0 99h26M74 99h26" />
<path stroke="#faff96" d="M8 2h1M8 3h1M8 4h1M50 4h1M7 5h3M51 5h1M8 6h1M50 6h1M8 7h1M93 7h1M8 8h1M93 8h1M93 9h1M92 10h3M93 11h1M93 12h1M93 13h1M31 16h1M80 16h1M30 17h3M79 17h3M31 18h1M80 18h1M5 30h1M7 30h1M6 31h1M5 32h1M7 32h1M82 40h1M84 40h1M83 41h1M82 42h1M84 42h1M13 61h1M13 62h1M13 63h1M12 64h3M13 65h1M13 66h1M13 67h1M13 69h1M83 72h1M82 73h3M83 74h1M79 91h1M79 92h1M79 93h1M91 93h1M93 93h1M79 94h2M92 94h1M3 95h1M79 95h1M91 95h1M93 95h1M2 96h3M79 96h1M3 97h1M79 97h1" />
<path stroke="#f7ffcc" d="M29 2h1M76 2h1M99 2h1M2 4h1M40 4h1M32 9h1M8 19h1M96 25h1M87 32h1M94 41h1M4 47h1M72 49h1M13 51h1M98 52h1M80 55h1M89 62h1M38 64h1M59 67h1M4 69h1M27 73h1M76 74h1M11 82h1M92 83h1M16 95h1" />
<path stroke="#96f250" d="M56 3h6M52 4h5M52 5h1M51 6h2M86 6h3M50 7h2M83 7h4M50 8h1M82 8h2M49 9h2M48 10h2M47 11h2M46 12h2M45 13h2M45 14h2M45 15h2M46 16h2M47 17h2M17 20h24M13 21h4M40 21h4M11 22h2M44 22h2" />
<path stroke="#89cc56" d="M57 4h10M53 5h16M53 6h20M52 7h25M87 7h1M51 8h31M84 8h3M51 9h36M50 10h36M49 11h21M77 11h5M48 12h21M47 13h22M47 14h21M47 15h21M48 16h19M49 17h17M49 18h14M52 19h10M17 21h23M13 22h4M24 22h20M12 23h2M27 23h22M71 23h6M12 24h2M29 24h20M66 24h24M12 25h2M33 25h20M66 25h22M13 26h1M34 26h20M63 26h23M13 27h2M36 27h49M14 28h1M39 28h44M14 29h2M41 29h39M15 30h2M44 30h33M16 31h2M46 31h28M17 32h3M49 32h22M51 33h16M55 34h9M36 72h1M63 72h1M33 73h4M63 73h4M31 74h6M63 74h6M29 75h9M63 75h8M27 76h12M49 76h1M61 76h12M26 77h14M48 77h4M60 77h14M24 78h18M46 78h8M59 78h17M23 79h54M23 80h54M22 81h13M36 81h28M65 81h13M21 82h5M27 82h7M36 82h28M66 82h7M74 82h5M21 83h4M27 83h7M36 83h28M66 83h7M75 83h4M21 84h3M26 84h8M36 84h28M66 84h8M76 84h3M21 85h2M25 85h8M36 85h28M66 85h9M77 85h2M21 86h2M24 86h9M36 86h28M67 86h9M77 86h2M21 87h2M24 87h9M35 87h29M67 87h9M77 87h2M21 88h2M24 88h5M35 88h29M71 88h5M77 88h2M21 89h7M30 89h1M35 89h29M72 89h5M22 90h8M35 90h29M67 90h1M72 90h4M20 91h1M23 91h6M35 91h29M67 91h2M73 91h3M23 92h5M32 92h1M35 92h29M68 92h2M31 93h1M35 93h28M69 93h2M35 94h28M70 94h3M35 95h28M35 96h28M35 97h28M35 98h27M36 99h26" />
<path stroke="#76b04a" d="M88 7h1M87 8h1M87 9h1M86 10h1M70 11h7M82 11h4M69 12h16M69 13h4M78 13h4M68 14h3M68 15h2M67 16h3M66 17h4M63 18h4M62 19h2M12 21h1M10 22h1M17 22h7M9 23h3M14 23h13M9 24h3M14 24h15M49 24h5M65 24h1M90 24h3M9 25h3M14 25h19M53 25h2M62 25h4M88 25h5M10 26h3M14 26h20M54 26h9M86 26h6M11 27h2M15 27h12M31 27h5M85 27h6M12 28h2M15 28h10M33 28h6M83 28h6M12 29h2M16 29h8M35 29h6M80 29h7M13 30h2M17 30h6M37 30h7M77 30h8M14 31h2M18 31h3M38 31h8M74 31h9M15 32h2M20 32h1M40 32h9M71 32h10M16 33h4M44 33h7M67 33h13M46 34h9M64 34h14M49 35h26M53 36h14M72 36h1M37 72h1M62 72h1M37 73h1M62 73h1M37 74h2M61 74h2M38 75h1M49 75h2M61 75h2M39 76h1M48 76h1M50 76h3M59 76h2M40 77h2M46 77h2M52 77h2M58 77h2M42 78h4M54 78h5M34 82h1M65 82h1M34 83h1M65 83h1M34 84h1M65 84h1M33 85h2M65 85h1M33 86h1M65 86h2M33 87h1M64 87h1M66 87h1M33 88h1M64 88h1M66 88h1M32 89h2M64 89h1M66 89h1M69 89h1M77 89h2M32 90h2M64 90h1M66 90h1M70 90h2M76 90h2M31 91h3M64 91h1M66 91h1M71 91h2M76 91h1M30 92h2M33 92h1M64 92h1M66 92h2M72 92h5M29 93h2M32 93h2M63 93h2M66 93h3M27 94h7M63 94h2M66 94h4M63 95h2M63 96h2M63 97h2M62 98h3M62 99h2" />
<path stroke="#876731" d="M43 15h2M42 16h3M41 17h2M41 18h2M39 19h4" />
<path stroke="#75592a" d="M45 16h1M43 17h4M43 18h6M43 19h9M67 19h2M45 20h10M63 20h7M46 21h9M56 21h5M63 21h7M49 22h6M56 22h3M63 22h6M54 23h1M56 23h3M63 23h2M56 24h5" />
<path stroke="#634d26" d="M67 18h3M64 19h3M69 19h2M41 20h4M62 20h1M70 20h2M44 21h2M62 21h1M70 21h2M46 22h3M62 22h1M69 22h4M49 23h5M62 23h1M65 23h6M54 24h1M62 24h3" />
<path stroke="#d1d1d1" d="M55 20h7M55 21h1M61 21h1M55 22h1M59 22h3M55 23h1M59 23h3M55 24h1M61 24h1M55 25h7" />
<path stroke="#9cfaff" d="M27 27h1M25 28h2M24 29h1M23 30h2M21 31h2M21 32h1M20 33h1M20 34h1M19 35h1M19 36h1M18 37h2M18 38h1M17 39h2M17 40h1M17 41h1M17 42h1" />
<path stroke="#6bdaff" d="M28 27h1M27 28h2M25 29h4M25 30h8M35 30h1M23 31h12M36 31h2M22 32h11M35 32h4M21 33h6M28 33h11M21 34h5M27 34h9M20 35h5M27 35h5M20 36h4M25 36h6M20 37h10M43 37h1M56 37h1M69 37h2M19 38h11M69 38h3M19 39h2M22 39h7M69 39h3M18 40h2M22 40h2M25 40h4M70 40h2M22 41h1M25 41h3M22 42h1M24 42h3M22 43h1M24 43h1M22 44h1M24 44h1M22 45h1M24 45h1M24 46h1M24 47h1M26 51h4M25 52h6M71 52h5M24 53h7M69 53h8M26 54h4M31 54h1M72 54h5M28 55h2M70 55h1M73 55h5M28 56h1M69 56h9M24 57h1M28 57h1M69 57h5M76 57h2M24 58h1M27 58h2M67 58h1M71 58h2M24 59h6M66 59h5M25 60h5M66 60h1M69 60h2M75 60h1M25 61h7M66 61h1M69 61h3M75 61h1M25 62h6M33 62h2M69 62h3M74 62h2M24 63h3M32 63h2M68 63h8M25 64h8M69 64h5M26 65h6M28 66h2" />
<path stroke="#d6fdff" d="M29 27h2M29 28h4M29 29h6M33 30h2M39 32h1M39 33h5M24 54h2M24 55h4M24 56h4M29 56h2M25 57h3M29 57h3M74 57h2M25 58h2M29 58h5M73 58h4M30 59h4M71 59h6M30 60h4M67 60h2M71 60h4M32 61h1M67 61h2M72 61h3M67 62h2M72 62h2" />
<path stroke="#57bbcf" d="M36 30h1M35 31h1M33 32h2M27 33h1M26 34h1M36 34h9M25 35h2M32 35h7M24 36h1M31 36h5M67 36h5M30 37h6M66 37h3M71 37h2M30 38h5M66 38h3M72 38h1M21 39h1M29 39h6M66 39h3M72 39h1M20 40h2M24 40h1M29 40h5M66 40h4M72 40h1M18 41h4M23 41h2M28 41h6M66 41h6M18 42h4M23 42h1M27 42h7M66 42h4M17 43h3M21 43h1M23 43h1M25 43h9M66 43h3M17 44h1M21 44h1M23 44h1M25 44h9M66 44h2M21 45h1M23 45h1M25 45h1M32 45h2M66 45h2M21 46h3M25 46h1M32 46h2M66 46h1M21 47h3M25 47h1M32 47h2M66 47h1M22 48h4M32 48h2M66 48h1M23 49h3M32 49h2M66 49h1M24 50h2M32 50h2M66 50h1M25 51h1M32 51h2M66 51h1M31 52h3M66 52h5M31 53h3M66 53h3M23 54h1M30 54h1M32 54h2M66 54h6M23 55h1M30 55h4M65 55h5M71 55h2M23 56h1M31 56h3M65 56h4M23 57h1M32 57h3M64 57h5M23 58h1M34 58h2M64 58h3M68 58h3M77 58h1M23 59h1M34 59h3M64 59h2M77 59h1M23 60h2M34 60h4M63 60h3M76 60h2M24 61h1M33 61h5M62 61h4M76 61h2M23 62h2M31 62h2M35 62h3M63 62h4M76 62h1M23 63h1M27 63h5M34 63h4M63 63h5M76 63h1M23 64h2M33 64h5M63 64h6M74 64h3M23 65h3M32 65h5M64 65h12M24 66h4M30 66h6M65 66h10M25 67h10M67 67h7M26 68h6M69 68h4" />
<path stroke="#c296ff" d="M45 34h1M39 35h10M36 36h17M36 37h5M44 37h12M59 37h7M35 38h7M44 38h12M58 38h8M35 39h31M74 39h2M34 40h6M43 40h14M60 40h6M73 40h3M34 41h5M44 41h12M61 41h5M72 41h2M75 41h1M34 42h4M45 42h10M62 42h4M70 42h3M74 42h1M34 43h3M46 43h8M63 43h3M69 43h3M73 43h2M34 44h3M46 44h8M63 44h3M68 44h3M72 44h2M29 45h3M34 45h3M46 45h8M63 45h3M68 45h2M72 45h2M26 46h2M30 46h2M34 46h3M46 46h8M63 46h3M67 46h2M71 46h2M27 47h2M31 47h1M34 47h3M46 47h8M63 47h3M67 47h2M70 47h3M28 48h1M31 48h1M34 48h4M45 48h10M62 48h4M67 48h1M70 48h2M29 49h1M31 49h1M34 49h5M45 49h10M61 49h5M67 49h1M70 49h2M29 50h3M34 50h6M43 50h14M60 50h6M67 50h1M69 50h2M30 51h2M34 51h32M67 51h3M34 52h5M42 52h16M61 52h5M34 53h4M43 53h14M62 53h4M35 54h3M43 54h14M62 54h4M35 55h3M43 55h14M62 55h3M36 56h3M42 56h5M49 56h3M54 56h4M61 56h4M37 57h11M50 57h1M53 57h11M39 58h11M51 58h13M39 59h25M40 60h23M41 61h20M42 62h17M44 63h13M47 64h6M44 66h2M53 66h2M44 67h3M52 67h3M44 68h11M26 99h7M67 99h7" />
<path stroke="#21aeff" d="M41 37h2M57 37h2M42 38h2M56 38h2" />
<path stroke="#ebedff" d="M40 40h3M57 40h3M39 41h5M56 41h5M38 42h7M55 42h7M37 43h4M45 43h1M54 43h1M59 43h4M37 44h4M59 44h4M37 45h3M60 45h3M37 46h3M60 46h3M37 47h3M60 47h3M38 48h3M59 48h3M39 49h2M59 49h2M40 50h3M57 50h3" />
<path stroke="#9b7ec4" d="M74 41h1M73 42h1M72 43h1M71 44h1M26 45h3M70 45h2M28 46h2M69 46h2M29 47h2M69 47h1M29 48h2M68 48h2M30 49h1M68 49h2M68 50h1M34 54h1M34 55h1M34 56h2M35 57h2M36 58h3M37 59h2M38 60h2M39 61h2M61 61h1M40 62h2M59 62h2M42 63h2M57 63h2M44 64h3M53 64h4M44 65h11M46 66h7M47 67h5M27 97h1M31 97h1M68 97h1M72 97h1M26 98h8M66 98h8M33 99h1M66 99h1" />
<path stroke="#6600f5" d="M41 43h4M55 43h4M41 44h3M45 44h1M54 44h1M56 44h3M40 45h2M44 45h2M54 45h2M58 45h2M40 46h2M44 46h2M54 46h2M58 46h2M40 47h1M44 47h2M54 47h2M59 47h1M43 48h2M55 48h2M41 49h4M55 49h4" />
<path stroke="#ffffff" d="M44 44h1M55 44h1M41 47h2M57 47h2M41 48h2M57 48h2" />
<path stroke="#8dff36" d="M42 45h2M56 45h2M42 46h2M56 46h2M43 47h1M56 47h1" />
<path stroke="#d257ff" d="M39 52h3M58 52h3M38 53h5M57 53h5M38 54h5M57 54h5M38 55h5M57 55h5M39 56h3M58 56h3" />
<path stroke="#974dff" d="M47 56h2M52 56h2M48 57h2M51 57h2M50 58h1" />
<path stroke="#beff8c" d="M41 68h3M55 68h4M39 69h22M38 70h24M38 71h24M38 72h24M38 73h24M39 74h22M39 75h10M51 75h10M40 76h8M53 76h6M42 77h4M54 77h4M21 92h1M78 92h1M21 93h2M77 93h2M21 94h3M76 94h3M21 95h5M74 95h5M21 96h2M24 96h10M66 96h10M77 96h2M24 97h3M28 97h3M32 97h2M66 97h2M69 97h3M73 97h3" />
<path stroke="#9ee368" d="M35 71h3M62 71h3M32 72h4M64 72h4M30 73h3M67 73h3M29 74h2M69 74h2M26 75h3M71 75h3M25 76h2M73 76h2M24 77h2M74 77h2M23 78h1M76 78h1M22 79h1M77 79h1M21 80h2M77 80h2M20 81h2M35 81h1M64 81h1M78 81h2M20 82h1M26 82h1M35 82h1M64 82h1M73 82h1M79 82h1M20 83h1M25 83h2M35 83h1M64 83h1M73 83h2M79 83h1M20 84h1M24 84h2M35 84h1M64 84h1M74 84h2M79 84h1M20 85h1M23 85h2M35 85h1M64 85h1M75 85h2M79 85h1M20 86h1M23 86h1M34 86h2M64 86h1M76 86h1M79 86h1M20 87h1M23 87h1M34 87h1M65 87h1M76 87h1M79 87h1M20 88h1M23 88h1M29 88h4M34 88h1M65 88h1M67 88h4M76 88h1M79 88h1M20 89h1M28 89h2M31 89h1M34 89h1M65 89h1M67 89h2M70 89h2M79 89h1M20 90h2M30 90h2M34 90h1M65 90h1M68 90h2M78 90h2M21 91h2M29 91h2M34 91h1M65 91h1M69 91h2M77 91h2M22 92h1M28 92h2M34 92h1M65 92h1M70 92h2M77 92h1M23 93h6M34 93h1M65 93h1M71 93h6M24 94h3M34 94h1M65 94h1M73 94h3M26 95h9M65 95h9M34 96h1M65 96h1M34 97h1M65 97h1M34 98h1M65 98h1M34 99h2M64 99h2" />
</svg>