<svg xmlns="http://www.w3.org/2000/svg" viewBox="0 -0.5 100 100" shape-rendering="crispEdges">
<metadata>Made with Pixels to Svg https://codepen.io/shshaw/pen/XbxvNj</metadata>
<path stroke="#ff0d29" d="M0 0h2M3 0h10M14 0h17M98 0h2M0 1h30M98 1h1M0 2h5M10 2h19M98 2h2M0 3h4M11 3h13M25 3h4M0 4h3M12 4h13M29 4h1M0 5h3M12 5h11M0 6h3M12 6h11M0 7h3M12 7h8M0 8h4M11 8h7M0 9h5M10 9h7M0 10h15M0 11h14M0 12h13M0 13h13M0 14h13M0 15h13M0 16h14M0 17h3M4 17h9M0 18h12M0 19h11M0 20h10M0 21h10M0 22h10M0 23h10M0 24h10M0 25h10M0 26h11M0 27h12M0 28h15M0 29h2M3 29h15M0 30h16M0 31h11M12 31h3M0 32h15M0 33h15M0 34h15M0 35h15M0 36h15M0 37h15M0 38h15M0 39h16M0 40h16M0 41h16M0 42h16M0 43h16M0 44h16M0 45h17M0 46h1M2 46h15M0 47h17M0 48h17M0 49h17M0 50h18M0 51h24M0 52h7M13 52h11M0 53h6M14 53h10M0 54h5M15 54h9M0 55h4M16 55h8M0 56h4M16 56h9M0 57h4M16 57h15M0 58h4M16 58h4M21 58h10M0 59h4M16 59h16M0 60h5M15 60h19M0 61h6M14 61h23M0 62h7M13 62h24M41 62h1M0 63h18M20 63h7M28 63h14M0 64h17M21 64h18M40 64h2M0 65h16M21 65h22M0 66h16M22 66h7M31 66h12M89 66h6M0 67h16M22 67h6M31 67h13M78 67h1M84 67h2M89 67h6M0 68h16M22 68h5M31 68h6M41 68h4M77 68h19M0 69h7M8 69h8M22 69h1M24 69h2M31 69h5M42 69h7M74 69h22M0 70h16M23 70h3M31 70h5M42 70h6M73 70h25M0 71h17M23 71h3M31 71h5M42 71h4M72 71h28M0 72h17M23 72h3M31 72h1M33 72h3M42 72h3M72 72h12M85 72h15M0 73h17M23 73h3M31 73h6M41 73h3M72 73h28M0 74h9M10 74h7M24 74h2M31 74h12M73 74h27M0 75h18M24 75h2M31 75h11M74 75h3M78 75h20M99 75h1M0 76h18M24 76h1M31 76h16M75 76h25M0 77h18M24 77h1M31 77h19M76 77h10M91 77h9M1 78h17M31 78h17M49 78h2M77 78h8M92 78h8M0 79h15M31 79h4M36 79h16M77 79h7M93 79h7M0 80h13M31 80h20M77 80h6M94 80h6M0 81h12M31 81h19M78 81h5M94 81h6M0 82h11M31 82h19M78 82h5M94 82h6M3 83h8M31 83h18M78 83h5M94 83h6M5 84h5M32 84h10M43 84h5M78 84h6M93 84h7M6 85h4M32 85h14M78 85h4M83 85h2M92 85h8M6 86h4M32 86h13M78 86h8M91 86h9M6 87h4M32 87h12M78 87h22M6 88h4M32 88h11M78 88h22M6 89h5M32 89h10M78 89h22M6 90h5M32 90h9M78 90h22M5 91h10M31 91h3M35 91h5M78 91h22M3 92h12M30 92h10M78 92h22M0 93h16M30 93h9M78 93h22M0 94h18M30 94h8M78 94h9M88 94h12M0 95h5M6 95h12M30 95h7M78 95h22M0 96h18M30 96h7M78 96h4M83 96h17M0 97h18M30 97h6M78 97h19M98 97h2M0 98h18M30 98h6M78 98h22M0 99h11M12 99h6M30 99h6M78 99h22" />
<path stroke="#fff461" d="M2 0h1M13 0h1M99 1h1M24 3h1M3 17h1M2 29h1M11 31h1M1 46h1M20 58h1M27 63h1M39 64h1M7 69h1M23 69h1M32 72h1M84 72h1M9 74h1M77 75h1M98 75h1M0 78h1M48 78h1M35 79h1M42 84h1M82 85h1M34 91h1M87 94h1M5 95h1M82 96h1M97 97h1M11 99h1" />
<path stroke="#002fa6" d="M31 0h2M96 0h2M30 1h1M97 1h1M29 2h1M97 2h1M29 3h2M97 3h3M25 4h4M30 4h1M97 4h2M23 5h3M29 5h2M97 5h1M23 6h1M30 6h1M20 7h4M18 8h3M22 8h2M17 9h1M23 9h1M15 10h3M14 11h4M13 12h2M13 13h1M13 14h1M13 15h2M36 15h6M14 16h2M34 16h3M41 16h3M13 17h4M33 17h2M43 17h3M12 18h2M32 18h2M45 18h2M11 19h1M32 19h1M46 19h2M80 19h2M10 20h1M32 20h1M81 20h2M10 21h1M32 21h1M82 21h2M10 22h1M32 22h1M83 22h1M10 23h1M32 23h2M83 23h1M10 24h1M33 24h4M83 24h1M10 25h2M35 25h2M82 25h2M11 26h2M34 26h2M83 26h3M12 27h3M34 27h1M86 27h1M15 28h7M34 28h1M44 28h1M56 28h2M86 28h1M18 29h3M34 29h1M44 29h1M56 29h2M86 29h1M16 30h2M34 30h3M43 30h2M55 30h3M67 30h1M86 30h1M15 31h2M25 31h1M36 31h4M41 31h5M53 31h3M57 31h1M67 31h1M86 31h1M15 32h1M24 32h1M40 32h2M45 32h9M57 32h2M66 32h2M82 32h1M85 32h2M15 33h1M24 33h1M58 33h2M65 33h3M80 33h1M82 33h4M99 33h1M15 34h2M24 34h1M60 34h6M67 34h1M80 34h1M90 34h1M97 34h3M15 35h1M24 35h2M67 35h1M80 35h1M90 35h1M96 35h1M15 36h1M25 36h1M30 36h2M67 36h2M80 36h1M90 36h3M95 36h2M15 37h1M25 37h6M68 37h1M79 37h1M90 37h1M92 37h3M15 38h2M29 38h1M69 38h2M77 38h2M90 38h1M16 39h2M28 39h1M70 39h8M89 39h2M16 40h3M27 40h1M72 40h3M88 40h2M16 41h1M27 41h1M72 41h1M84 41h4M16 42h1M27 42h2M72 42h1M97 42h2M16 43h1M28 43h1M72 43h1M97 43h3M16 44h2M30 44h2M72 44h1M96 44h2M17 45h3M72 45h1M17 46h2M72 46h3M17 47h1M72 47h2M91 47h1M17 48h1M70 48h2M91 48h1M17 49h2M70 49h1M91 49h1M18 50h8M69 50h1M84 50h2M91 50h1M24 51h1M68 51h2M77 51h1M84 51h3M90 51h1M24 52h1M68 52h1M78 52h1M84 52h1M87 52h3M24 53h1M68 53h1M79 53h5M24 54h1M69 54h2M24 55h1M31 55h1M68 55h1M25 56h7M67 56h2M31 57h1M67 57h1M74 57h1M31 58h2M66 58h1M73 58h2M32 59h2M36 59h1M66 59h1M72 59h2M34 60h3M66 60h1M72 60h1M79 60h2M37 61h1M40 61h1M66 61h2M71 61h2M79 61h1M37 62h4M67 62h7M78 62h1M96 62h1M73 63h5M96 63h2M72 64h1M89 64h1M95 64h1M97 64h3M78 65h1M89 65h7M77 66h2M84 66h3M88 66h1M77 67h1M79 67h5M86 67h3M75 68h2" />
<path stroke="#0062b8" d="M33 0h63M31 1h66M30 2h67M31 3h66M31 4h66M99 4h1M26 5h3M31 5h66M98 5h2M24 6h6M31 6h69M24 7h76M21 8h1M24 8h76M18 9h5M24 9h76M18 10h82M18 11h82M15 12h85M14 13h86M14 14h86M15 15h21M42 15h58M16 16h18M37 16h4M44 16h56M17 17h16M35 17h8M46 17h54M14 18h18M34 18h11M47 18h53M12 19h4M17 19h15M33 19h10M44 19h2M48 19h32M82 19h18M11 20h5M17 20h15M33 20h10M48 20h33M83 20h17M11 21h5M17 21h2M20 21h12M33 21h13M47 21h35M84 21h16M11 22h6M21 22h11M33 22h12M49 22h34M84 22h16M12 23h8M21 23h11M34 23h13M48 23h2M53 23h30M84 23h16M13 24h7M21 24h1M26 24h7M37 24h10M50 24h1M53 24h8M63 24h20M85 24h15M15 25h6M22 25h13M37 25h11M49 25h2M52 25h7M60 25h1M63 25h3M68 25h14M86 25h14M25 26h9M36 26h24M62 26h1M64 26h2M69 26h8M78 26h5M87 26h13M24 27h10M35 27h25M61 27h2M66 27h11M78 27h1M81 27h5M88 27h12M22 28h12M35 28h9M45 28h11M58 28h17M80 28h6M88 28h12M21 29h13M35 29h9M45 29h11M58 29h19M79 29h7M88 29h12M18 30h16M37 30h6M45 30h10M58 30h9M68 30h18M88 30h12M17 31h8M26 31h8M40 31h1M46 31h7M58 31h9M68 31h18M88 31h12M16 32h8M25 32h9M59 32h7M68 32h13M83 32h2M88 32h12M16 33h8M25 33h3M29 33h6M60 33h5M68 33h12M88 33h11M17 34h7M25 34h3M30 34h6M68 34h12M87 34h3M91 34h6M16 35h8M26 35h13M68 35h12M81 35h1M85 35h5M91 35h5M16 36h8M26 36h4M32 36h7M69 36h11M81 36h9M93 36h2M99 36h1M16 37h8M31 37h8M69 37h10M81 37h9M98 37h2M17 38h7M30 38h2M33 38h6M71 38h6M81 38h9M96 38h4M18 39h7M29 39h3M34 39h5M81 39h8M93 39h7M19 40h8M28 40h4M34 40h5M80 40h8M93 40h7M17 41h10M28 41h11M79 41h4M92 41h8M17 42h10M29 42h10M77 42h7M91 42h6M99 42h1M17 43h5M23 43h4M29 43h5M35 43h4M76 43h21M18 44h3M23 44h4M35 44h4M75 44h21M22 45h7M35 45h3M74 45h22M99 45h1M21 46h8M34 46h4M75 46h25M18 47h20M74 47h17M93 47h7M18 48h20M72 48h19M93 48h7M19 49h19M71 49h20M93 49h7M26 50h12M70 50h14M86 50h5M93 50h7M26 51h12M70 51h7M78 51h6M87 51h3M93 51h7M27 52h11M70 52h1M74 52h3M79 52h5M92 52h8M28 53h10M72 53h5M91 53h5M98 53h2M31 54h7M71 54h7M85 54h7M96 54h4M32 55h6M69 55h12M83 55h5M90 55h2M94 55h6M33 56h4M69 56h7M77 56h11M92 56h8M35 57h1M68 57h6M77 57h8M87 57h1M89 57h11M67 58h6M76 58h10M88 58h12M67 59h5M76 59h5M83 59h17M67 60h5M75 60h4M82 60h13M98 60h2M68 61h3M74 61h5M82 61h12M99 61h1M74 62h4M81 62h4M87 62h6M81 63h2M86 63h2M91 63h1M80 64h1M86 64h2M81 65h2" />
<path stroke="#ff61a5" d="M5 2h3M6 3h2M10 3h1M6 4h6M7 5h4M3 6h2M7 6h1M10 6h2M3 7h5M10 7h2M4 8h1M6 8h2M10 8h1M5 9h2M9 9h1" />
<path stroke="#fff240" d="M8 2h2M4 3h2M8 3h2M3 4h3M3 5h4M11 5h1M5 6h2M8 6h2M8 7h2M5 8h1M8 8h2M7 9h2" />
<path stroke="#00bfb8" d="M16 19h1M43 19h1M16 20h1M43 20h5M16 21h1M19 21h1M46 21h1M17 22h4M45 22h4M20 23h1M47 23h1M50 23h3M20 24h1M22 24h4M47 24h3M51 24h2M61 24h2M21 25h1M48 25h1M51 25h1M59 25h1M61 25h2M66 25h2M60 26h2M63 26h1M66 26h3M77 26h1M60 27h1M63 27h3M77 27h1M79 27h2M75 28h5M77 29h2M28 33h1M28 34h2M32 38h1M32 39h2M32 40h2M96 53h2M92 54h4M88 55h2M92 55h2M88 56h4M85 57h2M88 57h1M86 58h2" />
<path stroke="#002d8d" d="M11 23h1M11 24h2M84 24h1M12 25h3M84 25h2M13 26h12M86 26h1M16 27h8M87 27h1M87 28h1M87 29h1M87 30h1M34 31h2M87 31h1M34 32h6M42 32h1M81 32h1M87 32h1M35 33h8M81 33h1M86 33h2M36 34h7M81 34h6M39 35h4M82 35h3M97 35h3M24 36h1M39 36h4M97 36h2M24 37h1M39 37h3M80 37h1M91 37h1M95 37h3M24 38h5M39 38h3M79 38h2M91 38h5M25 39h3M39 39h3M78 39h3M91 39h2M39 40h2M75 40h5M90 40h3M39 41h1M73 41h6M83 41h1M88 41h4M39 42h1M73 42h4M84 42h7M22 43h1M27 43h1M34 43h1M73 43h3M21 44h2M27 44h2M33 44h2M73 44h2M98 44h2M21 45h1M29 45h6M73 45h1M96 45h3M19 46h2M29 46h5M92 47h1M92 48h1M92 49h1M92 50h1M25 51h1M91 51h2M25 52h2M69 52h1M71 52h3M77 52h1M85 52h2M90 52h2M25 53h3M38 53h1M71 53h1M77 53h2M84 53h7M25 54h6M38 54h1M78 54h7M25 55h6M38 55h1M81 55h2M32 56h1M37 56h3M76 56h1M32 57h3M36 57h4M75 57h2M33 58h7M75 58h1M34 59h2M37 59h3M74 59h2M81 59h2M37 60h4M73 60h2M81 60h1M95 60h3M38 61h2M73 61h1M80 61h2M94 61h5M79 62h2M85 62h2M93 62h3M97 62h3M78 63h3M83 63h3M88 63h1M90 63h1M92 63h3M98 63h2M73 64h7M81 64h5M88 64h1M91 64h4M75 65h3M79 65h2M83 65h1M85 65h4M79 66h4M87 66h1" />
<path stroke="#00167f" d="M15 27h1M29 44h1M32 44h1M20 45h1M69 53h2M89 63h1M95 63h1M90 64h1M84 65h1M83 66h1" />
<path stroke="#ceb800" d="M56 31h1M44 32h1M54 32h3M44 33h11M56 33h2M44 34h1M57 34h3M66 34h1M59 35h8M66 36h1M66 37h2M56 38h3M67 38h2M58 39h3M68 39h2M60 40h3M69 40h3M61 41h2M69 41h3M62 42h3M70 42h2M62 43h3M70 43h2M63 44h3M70 44h2M64 45h2M70 45h2M70 46h2M62 47h1M70 47h2M49 48h2M61 48h2M50 49h4M58 49h4M53 50h6M67 53h1M67 54h2M67 55h1M65 59h1M65 60h1M65 61h1M66 62h1M66 63h7M68 64h4" />
<path stroke="#827900" d="M43 32h1M43 33h1M43 34h1M51 34h1M43 35h1M51 35h1M43 36h1M51 36h2M42 37h2M53 37h7M42 38h1M51 38h5M59 38h3M42 39h1M48 39h4M55 39h3M61 39h2M41 40h2M47 40h2M55 40h5M63 40h1M40 41h2M47 41h2M55 41h6M63 41h3M40 42h1M47 42h1M52 42h1M55 42h7M65 42h1M39 43h2M47 43h2M52 43h8M61 43h1M65 43h1M39 44h1M48 44h1M52 44h8M61 44h2M38 45h2M48 45h1M52 45h1M54 45h5M62 45h2M38 46h1M48 46h2M52 46h6M61 46h2M38 47h1M49 47h2M53 47h4M60 47h2M38 48h1M51 48h4M58 48h3M38 49h1M54 49h4M38 50h1M38 51h1M38 52h2M39 53h1M39 54h1M39 55h1M59 55h1M40 56h1M40 57h1M40 58h1M40 59h2M41 60h1M41 61h2M42 62h1M42 63h1M17 64h1M42 64h2M16 65h1M43 65h1M16 66h1M43 66h1M16 67h1M44 67h1M16 68h1M27 68h1M45 68h5M16 69h1M21 69h1M26 69h1M49 69h11M16 70h2M21 70h2M26 70h1M17 71h1M22 71h1M26 71h1M30 71h1M17 72h1M22 72h1M26 72h1M30 72h1M17 73h1M22 73h1M26 73h1M30 73h1M17 74h2M22 74h2M26 74h1M30 74h1M18 75h1M22 75h2M26 75h1M30 75h1M18 76h1M22 76h2M25 76h2M30 76h1M18 77h1M23 77h1M25 77h2M30 77h1M18 78h2M23 78h3M30 78h1M15 79h5M23 79h3M30 79h1M13 80h3M30 80h1M12 81h2M30 81h1M11 82h2M30 82h1M11 83h1M30 83h1M10 84h2M31 84h1M10 85h1M31 85h1M10 86h1M13 86h2M31 86h1M10 87h1M14 87h2M31 87h1M10 88h2M15 88h1M31 88h1M11 89h1M15 89h1M31 89h1M11 90h5M30 90h2M15 91h1M30 91h1M15 92h2M29 92h1M16 93h3M29 93h1M18 94h1M29 94h1M18 95h1M29 95h1" />
<path stroke="#e0d100" d="M55 33h1M45 34h6M52 34h5M44 35h7M52 35h7M44 36h7M53 36h13M44 37h9M60 37h6M43 38h8M62 38h5M43 39h5M63 39h5M43 40h4M64 40h5M42 41h5M66 41h3M41 42h6M66 42h4M41 43h6M66 43h4M40 44h8M66 44h4M40 45h8M66 45h4M39 46h9M63 46h7M39 47h10M63 47h7M39 48h10M63 48h7M39 49h11M62 49h8M39 50h14M59 50h10M39 51h29M40 52h28M40 53h27M40 54h6M52 54h15M40 55h6M53 55h6M60 55h7M41 56h4M54 56h3M59 56h8M41 57h5M58 57h9M41 58h5M56 58h10M42 59h4M55 59h10M42 60h4M54 60h11M43 61h3M52 61h13M43 62h5M50 62h16M43 63h23M44 64h24M17 65h2M44 65h17M17 66h2M44 66h15M17 67h2M45 67h12M17 68h2M50 68h9M17 69h4M27 69h1M18 70h3M27 70h1M18 71h4M27 71h3M18 72h4M27 72h3M18 73h4M27 73h3M57 73h3M19 74h3M27 74h3M56 74h5M19 75h3M27 75h3M56 75h5M19 76h3M27 76h3M56 76h5M19 77h4M27 77h3M56 77h4M20 78h3M26 78h4M55 78h4M20 79h3M26 79h4M55 79h2M16 80h14M55 80h1M14 81h16M13 82h17M12 83h18M12 84h19M11 85h20M11 86h2M15 86h16M11 87h3M16 87h15M12 88h3M16 88h15M12 89h3M16 89h15M16 90h14M16 91h14M17 92h12M19 93h10M19 94h10M19 95h10" />
<path stroke="#cbfbf7" d="M52 39h1" />
<path stroke="#d0fffb" d="M53 39h1" />
<path stroke="#ffffff" d="M54 39h1M54 40h1M53 41h2M53 42h2M50 43h2M50 44h2M49 45h3M53 45h1M59 45h1M50 46h2M58 46h1M51 47h2M57 47h3M55 48h3" />
<path stroke="#c2f2ee" d="M49 40h1" />
<path stroke="#d0edeb" d="M50 40h1" />
<path stroke="#d9f6f4" d="M51 40h1M60 45h1" />
<path stroke="#cbfcf8" d="M52 40h1" />
<path stroke="#fdfdfd" d="M53 40h1" />
<path stroke="#d9edec" d="M49 41h1" />
<path stroke="#ececec" d="M50 41h1" />
<path stroke="#e2f6f5" d="M51 41h1M49 42h1" />
<path stroke="#fbfbfb" d="M52 41h1" />
<path stroke="#c6f6f3" d="M48 42h1M61 45h1" />
<path stroke="#fafafa" d="M50 42h1" />
<path stroke="#e3fffd" d="M51 42h1M49 44h1" />
<path stroke="#e7fbf9" d="M49 43h1" />
<path stroke="#b4f6f2" d="M60 43h1" />
<path stroke="#cbf2ef" d="M60 44h1" />
<path stroke="#ecfffd" d="M59 46h1" />
<path stroke="#defbf9" d="M60 46h1" />
<path stroke="#0044d6" d="M7 52h2M6 53h3M12 53h1M6 54h4M12 54h2M7 55h3M12 55h2M8 56h2M12 56h1M6 57h1M8 57h1M12 58h2M5 59h2M12 59h2M5 60h3M11 60h3M6 61h2M7 62h1" />
<path stroke="#00f531" d="M9 52h4M9 53h3M13 53h1M5 54h1M10 54h2M14 54h1M4 55h3M10 55h2M14 55h2M4 56h4M10 56h2M13 56h3M4 57h2M7 57h1M9 57h7M4 58h8M14 58h2M4 59h1M7 59h5M14 59h2M8 60h3M14 60h1M8 61h6M8 62h5" />
<path stroke="#d6002e" d="M46 54h6M46 55h1M51 55h2M45 56h2M52 56h2M57 56h2M46 57h2M53 57h5M46 58h10M46 59h1M53 59h2M46 60h1M52 60h2M46 61h6M48 62h2" />
<path stroke="#ff2b59" d="M47 55h4M47 56h5M48 57h5M47 59h1M52 59h1M47 60h1M18 63h2M18 64h3M19 65h2M19 66h3M29 66h2M19 67h3M28 67h3M19 68h3M28 68h3M28 69h3M28 70h3" />
<path stroke="#ff3567" d="M48 59h1M48 60h1" />
<path stroke="#ff3f75" d="M49 59h1" />
<path stroke="#ff3b70" d="M50 59h1" />
<path stroke="#ff7088" d="M51 59h1M49 60h2" />
<path stroke="#e1184a" d="M51 60h1" />
<path stroke="#17ffd8" d="M96 64h1M99 65h1M97 67h2M96 68h3M96 69h3M98 70h1" />
<path stroke="#0019d6" d="M61 65h14M59 66h3M74 66h3M57 67h2M74 67h3M59 68h2M73 68h2M60 69h3M72 69h2M48 70h8M62 70h2M71 70h2M46 71h3M54 71h2M63 71h2M71 71h1M45 72h2M54 72h2M64 72h2M71 72h1M44 73h2M54 73h2M65 73h7M43 74h2M53 74h3M64 74h9M42 75h6M53 75h3M62 75h3M72 75h2M47 76h4M53 76h3M61 76h2M73 76h2M50 77h6M60 77h2M74 77h2M51 78h4M59 78h2M75 78h2M52 79h3M57 79h4M76 79h1M51 80h4M56 80h4M76 80h1M50 81h6M57 81h2M76 81h2M50 82h5M56 82h3M77 82h1M49 83h4M56 83h2M77 83h1M48 84h2M56 84h2M77 84h1M46 85h2M55 85h2M77 85h1M45 86h2M54 86h2M77 86h1M44 87h2M54 87h1M76 87h2M43 88h2M53 88h2M76 88h2M42 89h2M53 89h1M75 89h3M41 90h2M52 90h1M75 90h1M77 90h1M40 91h2M51 91h2M74 91h2M77 91h1M40 92h1M51 92h1M73 92h2M77 92h1M39 93h2M50 93h2M73 93h1M77 93h1M38 94h2M49 94h2M72 94h2M77 94h1M37 95h2M49 95h1M71 95h2M77 95h1M18 96h12M37 96h2M48 96h2M71 96h1M77 96h1M18 97h1M29 97h1M36 97h2M48 97h1M70 97h1M77 97h1M18 98h1M29 98h1M36 98h1M47 98h2M69 98h2M77 98h1M18 99h1M29 99h1M36 99h1M46 99h2M68 99h2M77 99h1" />
<path stroke="#1beb00" d="M96 65h3M95 66h5M95 67h2M99 67h1M99 68h1M99 69h1M99 70h1" />
<path stroke="#253be6" d="M62 66h12M59 67h15M61 68h12M64 70h7M49 71h5M47 72h7M66 72h5M46 73h2M45 74h2M48 74h5M48 75h2M65 75h7M51 76h2M63 76h10M62 77h12M61 78h14M61 79h15M60 80h16M56 81h1M59 81h17M55 82h1M59 82h18M53 83h3M58 83h19M50 84h6M58 84h19M48 85h7M57 85h20M47 86h7M56 86h21M46 87h8M55 87h21M45 88h8M55 88h21M44 89h9M54 89h21M43 90h9M53 90h22M42 91h9M53 91h21M41 92h10M52 92h21M41 93h9M52 93h21M40 94h9M51 94h21M39 95h10M50 95h21M39 96h9M50 96h21M19 97h10M38 97h10M49 97h21M37 98h10M49 98h20M75 98h1M19 99h10M37 99h9M48 99h20M74 99h2" />
<path stroke="#ffda75" d="M37 68h4M36 70h6M37 73h4" />
<path stroke="#1800f5" d="M36 69h6M36 71h6" />
<path stroke="#00cc14" d="M63 69h9M65 71h6M48 73h6M47 74h1M50 75h3M88 77h2M88 78h3M85 79h2M83 80h5M83 81h5M91 81h2M84 82h4M85 83h3M89 84h2M89 85h2M87 86h4M19 98h10" />
<path stroke="#b3a100" d="M56 70h6M56 71h7M56 72h8M56 73h1M60 73h5M61 74h3M61 75h1" />
<path stroke="#2b9cff" d="M36 72h6" />
<path stroke="#beff4d" d="M86 77h2M90 77h1M85 78h3M91 78h1M84 79h1M87 79h6M88 80h6M88 81h3M93 81h1M83 82h1M88 82h6M83 83h2M88 83h6M84 84h5M91 84h2M85 85h4M91 85h1M86 86h1" />
<path stroke="#00bf8c" d="M0 83h3M1 84h2M1 85h2M1 86h1M0 87h2M4 87h2M0 88h2M4 88h2M0 89h5M2 90h4M2 91h3M1 92h2" />
<path stroke="#ff2b6e" d="M0 84h1M3 84h2M0 85h1M3 85h3M0 86h1M2 86h4M2 87h2M2 88h2M5 89h1M0 90h2M0 91h2M0 92h1" />
<path stroke="#101dd7" d="M76 90h1M76 91h1M75 92h2M74 93h3M74 94h3M73 95h4M72 96h5M71 97h6M71 98h4M76 98h1M70 99h4M76 99h1" />
</svg>