<svg xmlns="http://www.w3.org/2000/svg" viewBox="0 -0.5 100 100" shape-rendering="crispEdges">
<metadata>Made with Pixels to Svg https://codepen.io/shshaw/pen/XbxvNj</metadata>
<path stroke="#00414d" d="M0 0h98M99 0h1M0 1h100M0 2h4M5 2h95M0 3h100M0 4h84M85 4h15M0 5h35M36 5h7M44 5h56M0 6h48M49 6h51M0 7h11M12 7h35M49 7h51M0 8h47M49 8h51M0 9h46M49 9h51M0 10h21M25 10h21M49 10h7M57 10h10M68 10h32M0 11h13M14 11h8M26 11h20M51 11h49M0 12h23M26 12h10M37 12h9M52 12h48M0 13h24M27 13h8M37 13h10M53 13h47M0 14h24M27 14h8M37 14h7M45 14h2M54 14h35M90 14h10M0 15h25M28 15h6M37 15h10M56 15h44M0 16h25M28 16h6M37 16h10M56 16h44M0 17h26M32 17h2M37 17h10M57 17h13M71 17h29M0 18h26M33 18h1M37 18h10M58 18h42M0 19h26M37 19h10M59 19h41M0 20h27M37 20h9M59 20h41M0 21h27M37 21h9M59 21h41M0 22h27M38 22h8M59 22h41M0 23h22M23 23h4M38 23h8M59 23h41M0 24h28M38 24h7M59 24h17M77 24h23M0 25h28M39 25h5M59 25h17M77 25h23M0 26h28M39 26h5M58 26h10M69 26h5M77 26h23M0 27h11M12 27h16M39 27h4M58 27h15M76 27h24M0 28h28M39 28h3M58 28h14M76 28h18M95 28h5M0 29h28M39 29h3M58 29h14M76 29h24M0 30h28M41 30h1M58 30h10M76 30h24M0 31h28M41 31h1M58 31h9M76 31h24M0 32h28M59 32h7M76 32h24M0 33h1M2 33h26M59 33h6M75 33h25M0 34h28M61 34h4M75 34h8M84 34h16M0 35h28M61 35h3M75 35h25M0 36h23M24 36h3M62 36h2M74 36h26M0 37h27M73 37h27M0 38h27M73 38h27M0 39h27M73 39h27M0 40h27M73 40h27M0 41h27M73 41h27M0 42h3M4 42h23M73 42h27M0 43h27M74 43h26M0 44h26M74 44h26M0 45h1M2 45h24M74 45h11M86 45h14M0 46h25M75 46h25M0 47h25M75 47h25M0 48h25M75 48h25M0 49h17M19 49h6M75 49h25M0 50h25M75 50h25M0 51h17M75 51h25M0 52h16M75 52h25M0 53h15M16 53h1M75 53h25M0 54h16M75 54h25M0 55h17M75 55h25M0 56h12M13 56h1M15 56h3M75 56h25M0 57h10M11 57h7M75 57h25M0 58h10M11 58h1M13 58h6M75 58h25M0 59h2M3 59h2M6 59h2M12 59h5M18 59h6M75 59h17M94 59h6M0 60h2M3 60h3M8 60h1M10 60h6M19 60h5M75 60h5M81 60h9M92 60h1M94 60h5M1 61h1M5 61h3M10 61h6M17 61h8M74 61h1M76 61h14M93 61h1M95 61h1M97 61h2M0 62h2M4 62h1M7 62h1M10 62h1M12 62h12M74 62h1M76 62h14M92 62h3M96 62h1M2 63h3M7 63h3M11 63h11M23 63h2M75 63h2M78 63h1M80 63h6M88 63h1M90 63h1M92 63h3M96 63h3M2 64h2M7 64h1M11 64h9M21 64h1M23 64h1M76 64h2M79 64h1M81 64h4M87 64h2M94 64h2M97 64h1M4 65h3M8 65h11M21 65h1M23 65h3M74 65h1M77 65h3M81 65h1M83 65h2M87 65h3M95 65h2M2 66h1M5 66h5M12 66h2M15 66h2M25 66h1M77 66h2M80 66h3M90 66h1M92 66h1M96 66h1M3 67h2M6 67h4M12 67h5M23 67h1M25 67h1M72 67h2M79 67h1M91 67h1M3 68h1M6 68h1M8 68h1M11 68h1M13 68h2M16 68h1M21 68h1M23 68h3M73 68h1M76 68h1M78 68h1M80 68h2M90 68h1M95 68h1M97 68h1M2 69h1M5 69h1M8 69h1M10 69h2M13 69h4M22 69h1M24 69h3M73 69h2M76 69h3M83 69h1M87 69h1M91 69h4M96 69h1M11 70h1M15 70h1M18 70h2M23 70h4M73 70h1M76 70h2M79 70h2M84 70h1M87 70h1M90 70h1M92 70h1M96 70h1M11 71h2M15 71h1M24 71h3M76 71h4M88 71h1M90 71h6M97 71h1M10 72h2M16 72h1M18 72h1M22 72h1M25 72h3M77 72h1M89 72h1M91 72h1M9 73h3M13 73h1M18 73h3M25 73h3M77 73h2M80 73h1M9 74h3M24 74h2M10 75h1M12 75h1M16 75h5M25 75h1M87 75h1M8 76h4M16 76h1M87 76h1M89 76h2M8 77h1M18 77h1M89 77h1M10 78h1M89 78h2M11 79h1M11 80h1M11 81h1" />
<path stroke="#d60000" d="M98 0h1M4 2h1M35 5h1M43 5h1M67 10h1M13 11h1M44 14h1M89 14h1M22 23h1M68 26h1M11 27h1M1 33h1M83 34h1M3 42h1M1 45h1M92 59h2M90 60h2M93 60h1M75 61h1M94 61h1M75 62h1M90 62h2M95 62h1M74 63h1M77 63h1M89 63h1M95 63h1M24 64h1M73 64h3M89 64h1M92 64h2M96 64h1M98 64h1M22 65h1M73 65h1M75 65h2M90 65h5M97 65h3M10 66h1M17 66h1M21 66h1M23 66h2M72 66h5M91 66h1M93 66h3M97 66h3M0 67h2M10 67h2M17 67h1M22 67h1M74 67h3M81 67h1M83 67h1M87 67h1M89 67h2M92 67h8M1 68h1M9 68h2M12 68h1M17 68h1M22 68h1M72 68h1M74 68h2M77 68h1M84 68h6M91 68h4M96 68h1M98 68h2M0 69h1M4 69h1M9 69h1M12 69h1M17 69h1M21 69h1M23 69h1M72 69h1M75 69h1M80 69h2M85 69h1M88 69h3M95 69h1M97 69h3M0 70h1M2 70h3M7 70h4M12 70h3M17 70h1M21 70h2M74 70h2M82 70h1M85 70h2M91 70h1M93 70h3M97 70h3M3 71h3M7 71h4M13 71h2M17 71h1M23 71h1M80 71h2M83 71h5M89 71h1M96 71h1M98 71h2M2 72h1M4 72h1M6 72h4M13 72h2M17 72h1M21 72h1M24 72h1M80 72h6M87 72h2M94 72h6M0 73h2M3 73h1M6 73h3M12 73h1M14 73h3M22 73h1M24 73h1M31 73h1M79 73h1M81 73h2M86 73h3M93 73h7M0 74h2M3 74h1M6 74h1M8 74h1M12 74h4M18 74h3M23 74h1M82 74h2M87 74h4M92 74h8M0 75h1M11 75h1M14 75h2M84 75h1M89 75h9M99 75h1M0 76h1M7 76h1M14 76h2M18 76h1M20 76h1M88 76h1M91 76h1M93 76h7M0 77h1M11 77h1M17 77h1M19 77h1M90 77h10M14 78h6M94 78h3M98 78h2M16 79h3M89 79h1M91 79h1M94 79h2M97 79h3M4 80h2M7 80h1M14 80h1M17 80h1M89 80h1M98 80h2M5 81h3M14 81h1M89 81h1M96 81h4M8 82h1M90 82h1M95 82h2M98 82h2M98 83h1M2 85h2M96 85h1M3 86h1M5 86h1M8 86h1M99 86h1M2 87h2M15 87h1M97 87h1M99 87h1M2 88h4M15 88h1M94 88h1M2 89h1M4 89h4M15 89h1M4 90h2M14 90h1M17 90h1M5 91h2M14 91h1" />
<path stroke="#fff12b" d="M84 4h1M11 7h1M56 10h1M70 17h1M94 28h1M23 36h1M85 45h1" />
<path stroke="#fbf236" d="M48 6h1M47 7h2M47 8h2M46 9h3M21 10h4M46 10h3M22 11h4M46 11h5M23 12h3M36 12h1M46 12h6M24 13h3M35 13h2M47 13h6M24 14h3M35 14h2M47 14h7M25 15h3M34 15h3M47 15h9M25 16h3M34 16h3M47 16h9M26 17h6M34 17h3M47 17h4M53 17h4M26 18h7M34 18h3M47 18h4M53 18h5M26 19h11M47 19h5M54 19h5M27 20h4M32 20h5M46 20h6M55 20h4M27 21h4M32 21h5M46 21h6M55 21h4M27 22h4M33 22h5M46 22h5M55 22h4M27 23h4M36 23h2M46 23h5M56 23h3M28 24h3M37 24h1M45 24h4M56 24h3M76 24h1M28 25h3M37 25h2M44 25h4M56 25h3M76 25h1M28 26h3M37 26h2M44 26h4M56 26h2M74 26h3M28 27h4M37 27h2M43 27h4M56 27h2M73 27h3M28 28h4M37 28h2M42 28h4M56 28h2M72 28h4M28 29h4M37 29h2M42 29h4M56 29h2M72 29h4M28 30h4M37 30h4M42 30h4M56 30h2M68 30h8M28 31h4M37 31h4M42 31h3M56 31h2M67 31h9M28 32h4M37 32h7M56 32h3M66 32h10M28 33h5M37 33h7M57 33h2M65 33h6M74 33h1M28 34h5M37 34h6M57 34h4M65 34h4M73 34h2M28 35h5M37 35h6M57 35h4M64 35h3M73 35h2M27 36h6M38 36h5M58 36h4M64 36h2M73 36h1M27 37h6M39 37h4M58 37h7M72 37h1M27 38h6M42 38h1M59 38h5M72 38h1M27 39h6M59 39h4M71 39h2M27 40h6M61 40h2M71 40h2M27 41h6M61 41h1M71 41h2M27 42h6M61 42h1M71 42h2M27 43h6M61 43h1M69 43h5M26 44h6M59 44h2M69 44h5M26 45h5M69 45h5M25 46h6M69 46h6M25 47h4M69 47h6M25 48h4M69 48h6M25 49h3M69 49h6M25 50h3M69 50h6M69 51h6M69 52h6M69 53h6M69 54h6M69 55h6M69 56h6M69 57h6M69 58h6M24 59h2M69 59h6M24 60h2M69 60h6M25 61h1M69 61h5M25 62h2M69 62h5M25 63h2M68 63h6M25 64h2M68 64h5M26 65h2M67 65h6M26 66h3M66 66h6M26 67h6M64 67h8M26 68h6M64 68h8M27 69h7M62 69h10M27 70h10M57 70h14M28 71h41M29 72h38M32 73h33M34 74h25M38 75h16M47 76h4" />
<path stroke="#e01600" d="M51 17h2M51 18h2M52 19h2M31 20h1M52 20h3M31 21h1M52 21h3M31 22h2M51 22h4M31 23h5M51 23h5M31 24h6M49 24h7M31 25h6M48 25h8M31 26h6M48 26h8M32 27h5M47 27h5M54 27h2M32 28h5M46 28h5M54 28h2M32 29h5M46 29h5M54 29h2M32 30h5M46 30h5M54 30h2M32 31h5M45 31h6M55 31h1M32 32h5M44 32h5M55 32h1M33 33h4M44 33h5M55 33h2M71 33h3M33 34h4M43 34h6M56 34h1M69 34h4M33 35h4M43 35h2M47 35h1M56 35h1M67 35h6M33 36h5M43 36h2M47 36h1M57 36h1M66 36h7M33 37h6M43 37h1M65 37h7M33 38h3M37 38h5M43 38h1M58 38h1M64 38h8M33 39h3M38 39h6M58 39h1M63 39h8M33 40h3M39 40h5M58 40h3M63 40h8M33 41h3M39 41h5M58 41h3M62 41h3M68 41h3M33 42h3M39 42h5M58 42h3M62 42h3M68 42h3M33 43h3M41 43h3M58 43h3M62 43h3M67 43h2M32 44h3M42 44h2M61 44h3M67 44h2M31 45h3M42 45h2M59 45h4M67 45h2M31 46h3M59 46h4M66 46h3M29 47h4M59 47h3M66 47h3M29 48h4M61 48h1M66 48h3M17 49h2M28 49h5M66 49h3M28 50h4M66 50h3M67 51h2M16 52h1M67 52h2M15 53h1M67 53h2M16 54h1M67 54h2M67 55h2M12 56h1M14 56h1M66 56h3M10 57h1M66 57h3M10 58h1M12 58h1M66 58h3M2 59h1M5 59h1M8 59h4M17 59h1M26 59h5M66 59h3M2 60h1M6 60h2M9 60h1M16 60h3M26 60h5M66 60h3M99 60h1M0 61h1M2 61h3M8 61h2M16 61h1M26 61h6M66 61h3M90 61h3M96 61h1M99 61h1M2 62h2M5 62h2M8 62h2M11 62h1M27 62h5M66 62h3M97 62h3M0 63h2M5 63h2M10 63h1M27 63h6M65 63h3M87 63h1M91 63h1M99 63h1M0 64h2M4 64h3M8 64h3M27 64h8M63 64h5M85 64h2M90 64h2M99 64h1M0 65h4M7 65h1M19 65h1M28 65h10M62 65h5M82 65h1M85 65h2M0 66h2M3 66h2M11 66h1M14 66h1M18 66h2M29 66h12M57 66h9M83 66h3M2 67h1M5 67h1M18 67h2M32 67h10M56 67h8M82 67h1M84 67h2M88 67h1M0 68h1M2 68h1M4 68h2M7 68h1M15 68h1M18 68h3M32 68h10M56 68h8M82 68h2M1 69h1M3 69h1M6 69h2M18 69h3M34 69h10M54 69h8M82 69h1M84 69h1M86 69h1M1 70h1M5 70h2M16 70h1M20 70h1M37 70h20M81 70h1M83 70h1M88 70h1M0 71h3M6 71h1M19 71h4M27 71h1M82 71h1M0 72h2M3 72h1M5 72h1M12 72h1M15 72h1M19 72h2M28 72h1M79 72h1M86 72h1M2 73h1M4 73h2M28 73h1M83 73h1M85 73h1M4 74h2M7 74h1M16 74h2M22 74h1M4 75h1M8 75h2M85 75h1M88 75h1M2 76h2M5 76h1M21 76h1M23 76h2M2 77h1M4 77h1M9 77h1M21 77h1M0 78h1M3 78h1M8 78h2M20 78h1M0 79h2M3 79h1M15 79h1M3 80h1M9 80h1M15 80h1M0 81h3M4 81h1M10 81h1M13 81h1M15 81h1M3 82h1M7 82h1M15 82h3M4 83h3M9 83h1M11 83h2M14 83h1M16 83h2M0 84h1M3 84h8M12 84h1M16 84h3M0 85h2M4 85h2M7 85h2M16 85h1M18 85h1M0 86h3M4 86h1M6 86h2M13 86h1M16 86h2M4 87h1M12 87h3M17 87h2M0 88h2M6 88h1M11 88h2M16 88h1M0 89h1" />
<path stroke="#f59700" d="M52 27h2M51 28h3M51 29h3M51 30h3M51 31h4M49 32h6M49 33h6M49 34h7M45 35h2M48 35h8M45 36h2M48 36h9M44 37h14M36 38h1M44 38h14M36 39h2M44 39h14M36 40h3M44 40h14M36 41h3M44 41h14M65 41h3M36 42h3M44 42h14M65 42h3M36 43h5M44 43h14M65 43h2M35 44h7M44 44h15M64 44h3M34 45h8M44 45h15M63 45h4M34 46h25M63 46h3M33 47h26M62 47h4M33 48h28M62 48h4M33 49h33M32 50h34M39 51h6M39 52h2M43 52h2M41 53h2M39 54h6M39 55h6M38 56h8M37 57h9M65 57h1M36 58h11M64 58h2M31 59h35M31 60h35M80 60h1M32 61h34M32 62h20M56 62h10M33 63h16M57 63h8M79 63h1M86 63h1M20 64h1M22 64h1M35 64h12M57 64h6M78 64h1M80 64h1M20 65h1M38 65h7M57 65h5M80 65h1M20 66h1M22 66h1M79 66h1M86 66h4M20 67h2M77 67h2M80 67h1M86 67h1M79 68h1M79 69h1M72 70h1M78 70h1M89 70h1M16 71h1M18 71h1M75 71h1M23 72h1M75 72h2M78 72h1M90 72h1M92 72h2M17 73h1M21 73h1M23 73h1M84 73h1M89 73h4M2 74h1M21 74h1M84 74h3M91 74h1M1 75h3M5 75h3M13 75h1M21 75h4M86 75h1M98 75h1M1 76h1M4 76h1M6 76h1M12 76h2M19 76h1M22 76h1M92 76h1M1 77h1M5 77h3M13 77h2M20 77h1M1 78h2M4 78h4M2 79h1M5 79h6M90 79h1M0 80h3M6 80h1M10 80h1M16 80h1M90 80h1M92 80h1M3 81h1M8 81h2M16 81h2M90 81h2M94 81h1M0 82h1M6 82h1M11 82h1M91 82h1M94 82h1M0 83h2M10 83h1M13 83h1M15 83h1M18 83h1M94 83h2M99 83h1M1 84h1M11 84h1M94 84h5M6 85h1M9 85h4M15 85h1M17 85h1M88 85h1M93 85h3M97 85h2M10 86h1M18 86h1M92 86h1M94 86h4M0 87h2M7 87h1M9 87h2M7 88h1M10 88h1M13 88h1M17 88h1M8 89h1M11 89h2M16 89h1M88 89h1M90 89h1M7 90h1M15 90h1M89 90h2M93 90h1M9 91h1M12 91h2M15 91h1M14 92h1M16 92h1M92 92h1" />
<path stroke="#170000" d="M17 51h22M45 51h22M17 52h4M24 52h15M41 52h2M45 52h3M53 52h14M17 53h2M25 53h16M43 53h4M53 53h14M17 54h2M25 54h14M45 54h3M53 54h14M17 55h2M25 55h14M45 55h3M53 55h14M18 56h4M23 56h15M46 56h3M51 56h15M18 57h19M46 57h19M19 58h17M47 58h17M71 70h1M69 71h4M71 72h4M72 73h5M31 74h3M59 74h2M73 74h9M27 75h6M59 75h2M72 75h12M25 76h3M29 76h3M43 76h1M58 76h1M71 76h16M23 77h3M28 77h3M43 77h1M58 77h1M71 77h6M81 77h8M21 78h3M27 78h5M42 78h1M58 78h1M69 78h6M86 78h3M19 79h3M27 79h7M42 79h1M58 79h1M68 79h5M78 79h1M88 79h1M18 80h3M27 80h8M42 80h1M58 80h1M68 80h4M77 80h2M87 80h2M18 81h3M27 81h8M42 81h1M58 81h1M68 81h4M77 81h2M87 81h2M18 82h3M31 82h3M42 82h1M57 82h1M67 82h4M77 82h1M87 82h1M19 83h2M29 83h4M42 83h1M57 83h1M67 83h2M87 83h1M19 84h2M29 84h3M42 84h1M57 84h1M69 84h3M87 84h1M19 85h2M28 85h5M42 85h1M57 85h1M71 85h2M87 85h1M19 86h2M24 86h1M27 86h6M42 86h1M57 86h1M72 86h2M87 86h1M19 87h2M24 87h2M28 87h6M42 87h1M57 87h1M71 87h4M87 87h1M18 88h1M25 88h2M28 88h6M42 88h1M57 88h1M69 88h6M87 88h1M18 89h1M24 89h3M29 89h6M42 89h1M56 89h1M68 89h8M87 89h1M18 90h1M24 90h3M31 90h4M42 90h1M56 90h1M67 90h5M73 90h3M87 90h2M18 91h1M24 91h3M32 91h4M42 91h1M56 91h1M67 91h4M73 91h3M88 91h1M18 92h1M24 92h3M33 92h3M42 92h1M56 92h1M66 92h3M73 92h2M88 92h1M18 93h1M24 93h3M34 93h2M42 93h1M56 93h1M65 93h3M73 93h2M88 93h1M18 94h1M24 94h3M34 94h2M42 94h1M56 94h1M65 94h3M73 94h2M88 94h1M17 95h2M24 95h3M34 95h3M42 95h1M56 95h1M64 95h3M73 95h2M88 95h1M17 96h1M23 96h4M34 96h3M42 96h1M56 96h1M64 96h3M73 96h2M88 96h1M17 97h1M23 97h4M35 97h2M42 97h1M56 97h1M63 97h3M73 97h2M88 97h1M16 98h2M22 98h5M35 98h2M42 98h1M56 98h1M62 98h4M73 98h2M88 98h1M16 99h1M22 99h5M35 99h2M42 99h1M56 99h1M62 99h3M73 99h1M88 99h1" />
<path stroke="#e0bb00" d="M21 52h1M48 52h1M19 53h2M47 53h1M19 54h2M19 55h2" />
<path stroke="#866700" d="M22 52h1M21 54h1M21 55h1" />
<path stroke="#5a3e00" d="M23 52h1M23 53h1" />
<path stroke="#9d7c00" d="M49 52h2M22 53h1M48 53h1" />
<path stroke="#705300" d="M51 52h1M51 53h1M22 54h1M48 54h3M22 55h1M48 55h3" />
<path stroke="#432900" d="M52 52h1M52 53h1M23 54h1M51 54h1M23 55h1M51 55h1" />
<path stroke="#b39100" d="M21 53h1M49 53h2" />
<path stroke="#2d1400" d="M24 53h1M24 54h1M52 54h1M24 55h1M52 55h1M22 56h1M49 56h2" />
<path stroke="#ff992b" d="M24 62h1M22 63h1M24 67h1M73 71h2M17 76h1M15 77h2M12 79h1M95 80h1M89 82h1M93 82h1M89 83h1M91 83h1M89 84h4M90 85h3M88 86h2M91 86h1M88 87h2M91 87h2M94 87h1M88 88h3M93 88h1M17 89h1M92 90h1M95 90h1M89 91h5M89 92h3M93 92h2M17 93h1M89 93h5M13 94h1M16 94h1M89 94h6M97 94h1M99 94h1M89 95h11M90 96h3M94 96h3M98 96h2M13 97h1M91 97h1M93 97h3M97 97h1M92 98h1M94 98h1M92 99h4" />
<path stroke="#ffffff" d="M52 62h4M49 63h6M47 64h7M56 64h1M45 65h8M55 65h2M41 66h10M54 66h3M42 67h14M42 68h14M44 69h10" />
<path stroke="#595959" d="M55 63h2M54 64h2M53 65h2M51 66h3" />
<path stroke="#791c12" d="M67 72h1" />
<path stroke="#891b10" d="M68 72h1" />
<path stroke="#841b10" d="M69 72h2" />
<path stroke="#01414d" d="M29 73h2" />
<path stroke="#872b14" d="M65 73h1" />
<path stroke="#782215" d="M66 73h1" />
<path stroke="#721e14" d="M67 73h1" />
<path stroke="#741b13" d="M68 73h1M69 75h2" />
<path stroke="#7e1b11" d="M69 73h2" />
<path stroke="#821b11" d="M71 73h1" />
<path stroke="#f49000" d="M26 74h1" />
<path stroke="#153d46" d="M27 74h1" />
<path stroke="#173d45" d="M28 74h1" />
<path stroke="#1a3c44" d="M29 74h2" />
<path stroke="#a3290f" d="M61 74h1" />
<path stroke="#b33f12" d="M62 74h1" />
<path stroke="#b34c16" d="M63 74h1" />
<path stroke="#a44e19" d="M64 74h1" />
<path stroke="#893b18" d="M65 74h1" />
<path stroke="#6e2817" d="M66 74h1" />
<path stroke="#601e17" d="M67 74h1" />
<path stroke="#631c16" d="M68 74h1" />
<path stroke="#771b13" d="M69 74h2" />
<path stroke="#8f1a0e" d="M71 74h1" />
<path stroke="#b91807" d="M72 74h1M86 79h1" />
<path stroke="#31383d" d="M26 75h1" />
<path stroke="#b06a1e" d="M33 75h1" />
<path stroke="#a2531b" d="M34 75h1" />
<path stroke="#853016" d="M35 75h1" />
<path stroke="#6a1c15" d="M36 75h1M37 76h1" />
<path stroke="#691c15" d="M37 75h1" />
<path stroke="#750000" d="M54 75h3M45 76h2M51 76h6M45 77h12M45 78h12M44 79h13M44 80h12M44 81h12M44 82h12M44 83h12M44 84h12M44 85h12M44 86h12M44 87h12M44 88h12M44 89h12M44 90h11M44 91h10M44 92h10M44 93h10M44 94h10M44 95h9M44 96h8M44 97h7M44 98h5" />
<path stroke="#470808" d="M57 75h1M44 76h1M44 77h1M44 78h1M43 80h1M56 80h1M43 81h1M56 81h1M43 82h1M56 82h1M43 83h1M56 83h1M43 84h1M56 84h1M43 85h1M56 85h1M43 86h1M56 86h1M43 87h1M56 87h1M43 88h1M56 88h1M43 89h1M43 90h1M55 90h1M43 91h1M54 91h2M43 92h1M54 92h2M43 93h1M54 93h2M43 94h1M54 94h2M43 95h1M53 95h3M43 96h1M52 96h4M43 97h1M51 97h5M43 98h1M49 98h7M43 99h13" />
<path stroke="#760d06" d="M58 75h1" />
<path stroke="#af3a12" d="M61 75h1" />
<path stroke="#b75819" d="M62 75h1" />
<path stroke="#ab5e1c" d="M63 75h1" />
<path stroke="#92521d" d="M64 75h1" />
<path stroke="#73371b" d="M65 75h1" />
<path stroke="#5d261a" d="M66 75h1" />
<path stroke="#561e19" d="M67 75h1" />
<path stroke="#5f1c17" d="M68 75h1M41 83h1" />
<path stroke="#921a0e" d="M71 75h1M85 78h1M87 79h1M67 84h2M68 85h3M69 86h2" />
<path stroke="#991a0d" d="M28 76h1" />
<path stroke="#c3751e" d="M32 76h1" />
<path stroke="#d7a828" d="M33 76h1" />
<path stroke="#b16a1e" d="M34 76h1" />
<path stroke="#802f17" d="M35 76h1" />
<path stroke="#621c16" d="M36 76h1" />
<path stroke="#802514" d="M38 76h1" />
<path stroke="#942611" d="M39 76h3" />
<path stroke="#7f1b11" d="M42 76h1M67 80h1M67 81h1M33 83h2M71 86h1" />
<path stroke="#570908" d="M57 76h1M43 78h1" />
<path stroke="#902812" d="M59 76h2" />
<path stroke="#9f3c15" d="M61 76h1" />
<path stroke="#9a4d1a" d="M62 76h1" />
<path stroke="#82431b" d="M63 76h1" />
<path stroke="#6a371c" d="M64 76h1" />
<path stroke="#58281b" d="M65 76h1" />
<path stroke="#52221b" d="M66 76h1" />
<path stroke="#571e19" d="M67 76h1" />
<path stroke="#641c16" d="M68 76h1" />
<path stroke="#7a1b12" d="M69 76h2M66 82h1M66 83h1" />
<path stroke="#ffd70d" d="M3 77h1M10 77h1M12 77h1M11 78h3M4 79h1M13 79h2M8 80h1M12 80h2M12 81h1M1 82h2M4 82h2M9 82h2M12 82h3M2 83h2M7 83h2M2 84h1M13 84h3M13 85h2M9 86h1M11 86h2M14 86h2M5 87h2M8 87h1M11 87h1M16 87h1M8 88h2M14 88h1M1 89h1M3 89h1M9 89h2M13 89h2M0 90h4M6 90h1M8 90h6M16 90h1M99 90h1M0 91h5M7 91h2M10 91h2M16 91h2M94 91h1M96 91h1M98 91h1M0 92h14M15 92h1M17 92h1M0 93h17M94 93h2M0 94h13M14 94h2M17 94h1M95 94h1M0 95h17M0 96h17M89 96h1M93 96h1M0 97h13M14 97h3M89 97h2M92 97h1M96 97h1M98 97h2M0 98h16M89 98h3M93 98h1M95 98h5M0 99h16M89 99h3M96 99h4" />
<path stroke="#f38900" d="M22 77h1" />
<path stroke="#aa3912" d="M26 77h1" />
<path stroke="#a0240e" d="M27 77h1" />
<path stroke="#b74d16" d="M31 77h1" />
<path stroke="#c7781e" d="M32 77h1" />
<path stroke="#c58822" d="M33 77h1" />
<path stroke="#8e3e18" d="M34 77h1" />
<path stroke="#652218" d="M35 77h1" />
<path stroke="#521d19" d="M36 77h1M35 78h1M65 80h1M65 81h1M22 82h1M85 84h1M86 85h1M34 86h1" />
<path stroke="#5d1d17" d="M37 77h1" />
<path stroke="#893116" d="M38 77h1" />
<path stroke="#a83813" d="M39 77h2" />
<path stroke="#ae3912" d="M41 77h1" />
<path stroke="#831b10" d="M42 77h1M33 84h1" />
<path stroke="#680b07" d="M57 77h1" />
<path stroke="#792214" d="M59 77h2" />
<path stroke="#792a16" d="M61 77h1" />
<path stroke="#6c2d19" d="M62 77h1" />
<path stroke="#57291b" d="M63 77h1" />
<path stroke="#48241d" d="M64 77h1" />
<path stroke="#45201c" d="M65 77h1M83 82h1" />
<path stroke="#501f1a" d="M66 77h1" />
<path stroke="#5f1d17" d="M67 77h1" />
<path stroke="#721c14" d="M68 77h1" />
<path stroke="#761b13" d="M69 77h2M22 79h1" />
<path stroke="#5e2018" d="M77 77h1" />
<path stroke="#712616" d="M78 77h1" />
<path stroke="#792716" d="M79 77h2" />
<path stroke="#b24f17" d="M24 78h1" />
<path stroke="#bb5c19" d="M25 78h1" />
<path stroke="#ac4916" d="M26 78h1" />
<path stroke="#9f4417" d="M32 78h1" />
<path stroke="#944018" d="M33 78h1" />
<path stroke="#6f2316" d="M34 78h1" />
<path stroke="#481d1b" d="M36 78h1" />
<path stroke="#501d19" d="M37 78h1" />
<path stroke="#7c2e17" d="M38 78h1" />
<path stroke="#9c3514" d="M39 78h2" />
<path stroke="#a53713" d="M41 78h1" />
<path stroke="#5c0907" d="M57 78h1" />
<path stroke="#5e1e17" d="M59 78h2" />
<path stroke="#571f19" d="M61 78h1" />
<path stroke="#49201b" d="M62 78h1" />
<path stroke="#3d1e1d" d="M63 78h1M76 79h1M24 82h1M21 83h2M37 83h1M84 85h1" />
<path stroke="#371e1e" d="M64 78h1M64 79h1M76 80h1M76 81h1M28 83h1M39 86h2M84 86h1M35 87h1M85 87h1M34 88h1" />
<path stroke="#401e1c" d="M65 78h1M38 84h1M35 86h1" />
<path stroke="#531e19" d="M66 78h1" />
<path stroke="#6b1c15" d="M67 78h1" />
<path stroke="#721c13" d="M68 78h1" />
<path stroke="#381e1e" d="M75 78h1M59 80h2M59 81h2" />
<path stroke="#451e1c" d="M76 78h1" />
<path stroke="#5b2319" d="M77 78h1" />
<path stroke="#743019" d="M78 78h1" />
<path stroke="#843818" d="M79 78h2" />
<path stroke="#813217" d="M81 78h1" />
<path stroke="#772616" d="M82 78h1" />
<path stroke="#711f14" d="M83 78h1" />
<path stroke="#7a1c12" d="M84 78h1" />
<path stroke="#eb7900" d="M91 78h3M97 78h1M92 79h2M96 79h1M91 80h1M93 80h2M96 80h2M92 81h2M95 81h1M92 82h1M97 82h1M90 83h1M92 83h2M96 83h2M93 84h1M99 84h1M89 85h1M99 85h1M90 86h1M93 86h1M98 86h1M90 87h1M93 87h1M95 87h2M98 87h1M91 88h2M95 88h5M89 89h1M91 89h9M91 90h1M94 90h1M96 90h3M95 91h1M97 91h1M99 91h1M95 92h5M96 93h4M96 94h1M98 94h1M97 96h1" />
<path stroke="#8b2612" d="M23 79h1" />
<path stroke="#9c4819" d="M24 79h1" />
<path stroke="#96511c" d="M25 79h1" />
<path stroke="#82401b" d="M26 79h1" />
<path stroke="#661c16" d="M34 79h1M35 80h1M35 81h1" />
<path stroke="#581d18" d="M35 79h1M65 82h1M65 83h1" />
<path stroke="#491d1b" d="M36 79h1M38 82h1" />
<path stroke="#481e1b" d="M37 79h1" />
<path stroke="#642218" d="M38 79h1" />
<path stroke="#7c2415" d="M39 79h2" />
<path stroke="#852513" d="M41 79h1" />
<path stroke="#5b0907" d="M43 79h1" />
<path stroke="#530908" d="M57 79h1" />
<path stroke="#451e1b" d="M59 79h2M38 83h1M69 83h2M36 84h1M65 84h1M41 85h1M66 85h1M67 86h1M68 87h1" />
<path stroke="#3f1e1c" d="M61 79h1M39 85h2" />
<path stroke="#391e1d" d="M62 79h1M23 83h1M83 83h1M28 84h1M37 84h1M36 85h1M38 85h1M86 87h1" />
<path stroke="#351e1e" d="M63 79h1M75 79h1M25 82h1M28 82h1M24 83h1M37 85h1M38 86h1M84 87h1" />
<path stroke="#461e1b" d="M65 79h1" />
<path stroke="#611c16" d="M66 79h1M21 80h1M39 80h2M21 81h1M39 81h2" />
<path stroke="#781b12" d="M67 79h1M34 84h1" />
<path stroke="#341e1e" d="M73 79h1M62 80h1M62 81h1M83 85h1" />
<path stroke="#331e1e" d="M74 79h1M63 80h1M72 80h4M63 81h1M72 81h4M26 82h2M58 82h7M71 82h6M25 83h3M58 83h7M71 83h12M21 84h7M58 84h7M72 84h11M21 85h7M58 85h8M73 85h10M21 86h3M25 86h2M36 86h2M41 86h1M58 86h9M74 86h10M21 87h3M26 87h2M36 87h6M58 87h10M75 87h9M19 88h6M27 88h1M35 88h7M58 88h11M75 88h12M19 89h5M27 89h2M35 89h7M57 89h11M76 89h11M19 90h5M27 90h4M35 90h7M57 90h10M72 90h1M76 90h11M19 91h5M27 91h5M36 91h6M57 91h10M71 91h2M76 91h12M19 92h5M27 92h6M36 92h6M57 92h9M69 92h4M75 92h13M19 93h5M27 93h7M36 93h6M57 93h8M68 93h5M75 93h13M19 94h5M27 94h7M36 94h6M57 94h8M68 94h5M75 94h13M19 95h5M27 95h7M37 95h5M57 95h7M67 95h6M75 95h13M18 96h5M27 96h7M37 96h5M57 96h7M67 96h6M75 96h13M18 97h5M27 97h8M37 97h5M57 97h6M66 97h7M75 97h13M18 98h4M27 98h8M37 98h5M57 98h5M66 98h7M75 98h13M17 99h5M27 99h8M37 99h5M57 99h5M65 99h8M74 99h14" />
<path stroke="#4b201b" d="M77 79h1" />
<path stroke="#71361b" d="M79 79h2" />
<path stroke="#773c1c" d="M81 79h1" />
<path stroke="#71331a" d="M82 79h1" />
<path stroke="#6d2617" d="M83 79h1" />
<path stroke="#791e13" d="M84 79h1" />
<path stroke="#8e1a0f" d="M85 79h1" />
<path stroke="#6e1c14" d="M22 80h1M66 80h1M22 81h1M66 81h1M35 83h1" />
<path stroke="#732516" d="M23 80h1M23 81h1" />
<path stroke="#71341a" d="M24 80h1M24 81h1" />
<path stroke="#65391e" d="M25 80h1M25 81h1" />
<path stroke="#52291c" d="M26 80h1M26 81h1" />
<path stroke="#511d19" d="M36 80h1M36 81h1" />
<path stroke="#471e1b" d="M37 80h1M37 81h1M37 82h1M84 83h1" />
<path stroke="#4f1d1a" d="M38 80h1M38 81h1" />
<path stroke="#6c1c14" d="M41 80h1M41 81h1M66 84h1M86 84h1M67 85h1M68 86h1M69 87h2" />
<path stroke="#4a0808" d="M57 80h1M57 81h1" />
<path stroke="#361e1e" d="M61 80h1M61 81h1M78 82h1M83 84h1" />
<path stroke="#3b1e1d" d="M64 80h1M64 81h1" />
<path stroke="#522b1d" d="M79 80h2M79 81h2" />
<path stroke="#59321e" d="M81 80h1M81 81h1" />
<path stroke="#582c1c" d="M82 80h1M82 81h1" />
<path stroke="#5a241a" d="M83 80h1M83 81h1" />
<path stroke="#681e16" d="M84 80h1M84 81h1" />
<path stroke="#811b11" d="M85 80h1M85 81h1" />
<path stroke="#a6190a" d="M86 80h1M86 81h1" />
<path stroke="#4e1d1a" d="M21 82h1M35 85h1" />
<path stroke="#4a1d1a" d="M23 82h1M85 85h1" />
<path stroke="#3e1e1c" d="M29 82h2M85 86h1" />
<path stroke="#7c1b12" d="M34 82h1" />
<path stroke="#701c14" d="M35 82h1M86 83h1" />
<path stroke="#561d18" d="M36 82h1" />
<path stroke="#591d18" d="M39 82h2" />
<path stroke="#651c16" d="M41 82h1M85 82h1M34 85h1M33 86h1" />
<path stroke="#3b211e" d="M79 82h2" />
<path stroke="#40251e" d="M81 82h1" />
<path stroke="#41241e" d="M82 82h1" />
<path stroke="#521e19" d="M84 82h1" />
<path stroke="#7d1b12" d="M86 82h1M32 84h1" />
<path stroke="#fc8b27" d="M88 82h1" />
<path stroke="#541d19" d="M36 83h1M41 84h1" />
<path stroke="#531d19" d="M39 83h2" />
<path stroke="#5c1d17" d="M85 83h1" />
<path stroke="#fb8826" d="M88 83h1" />
<path stroke="#601c17" d="M35 84h1" />
<path stroke="#4b1d1a" d="M39 84h2" />
<path stroke="#411e1c" d="M84 84h1M34 87h1" />
<path stroke="#fc8d27" d="M88 84h1" />
<path stroke="#791b12" d="M33 85h1" />
<path stroke="#441e1b" d="M86 86h1" />
</svg>