<svg xmlns="http://www.w3.org/2000/svg" viewBox="0 -0.5 130 100" shape-rendering="crispEdges">
<metadata>Made with Pixels to Svg https://codepen.io/shshaw/pen/XbxvNj</metadata>
<path stroke="#000000" d="M29 38h72M28 39h74M26 40h5M99 40h5M25 41h5M100 41h5M25 42h3M102 42h3M25 43h2M103 43h2M25 44h2M103 44h2M25 45h2M103 45h2M25 46h2M103 46h2M25 47h2M103 47h2M25 48h2M103 48h2M25 49h2M103 49h2M25 50h2M103 50h2M25 51h2M103 51h2M25 52h2M103 52h2M25 53h2M103 53h2M25 54h2M103 54h2M25 55h2M103 55h2M25 56h2M103 56h2M25 57h2M103 57h2M25 58h2M103 58h2M25 59h3M102 59h3M25 60h5M100 60h5M26 61h78M28 62h74" />
<path stroke="#f5d63b" d="M31 40h68M30 41h70M28 42h74M27 43h76M27 44h76M27 45h76M27 46h76M27 47h76M27 48h76M27 49h76M27 50h76M27 51h76" />
<path stroke="#c7ae30" d="M27 52h76M27 53h76M27 54h76M27 55h76M27 56h76M27 57h76M27 58h76M28 59h74M30 60h70" />
</svg>